<svg width="180.000000" height="47.000000" viewBox="0 0 180 47" fill="none" xmlns="http://www.w3.org/2000/svg" xmlns:xlink="http://www.w3.org/1999/xlink">
	<desc>
			Created with Pixso.
	</desc>
	<defs>
		<clipPath id="clip1_6221">
			<rect id="Frame 111" rx="3.000000" width="180.000000" height="40.000000" transform="translate(0.000000 7.000000)" fill="white" fill-opacity="0"/>
		</clipPath>
	</defs>
	<rect id="Frame 111" rx="3.000000" width="180.000000" height="40.000000" transform="translate(0.000000 7.000000)" fill="#2F74FA" fill-opacity="1.000000"/>
	<g clip-path="url(#clip1_6221)">
		<path id="Добавить" d="M58.5986 22.292L58.5986 31.8867L59.917 31.8867L59.917 35.7979L58.7231 35.7979L58.7231 33L51.2817 33L51.2817 35.7979L50.0879 35.7979L50.0879 31.8867L50.9082 31.8867Q51.4575 30.9492 51.9373 29.781Q52.417 28.6128 52.7942 27.3347Q53.1714 26.0566 53.4094 24.7676Q53.6475 23.4785 53.7134 22.292L58.5986 22.292ZM57.3608 23.4126L54.812 23.4126Q54.7461 24.3208 54.519 25.4377Q54.292 26.5547 53.9368 27.7266Q53.5815 28.8984 53.1458 29.9751Q52.71 31.0518 52.2266 31.8867L57.3608 31.8867L57.3608 23.4126ZM68.4644 28.9717Q68.4644 29.9604 68.208 30.7368Q67.9517 31.5132 67.4683 32.0479Q66.9849 32.5825 66.3 32.8645Q65.6152 33.1465 64.751 33.1465Q63.9453 33.1465 63.2751 32.8645Q62.605 32.5825 62.1179 32.0479Q61.6309 31.5132 61.3635 30.7368Q61.0962 29.9604 61.0962 28.9717Q61.0962 27.6533 61.543 26.7268Q61.9897 25.8003 62.821 25.3132Q63.6523 24.8262 64.8022 24.8262Q65.9009 24.8262 66.7249 25.3169Q67.5488 25.8076 68.0066 26.7341Q68.4644 27.6606 68.4644 28.9717ZM62.356 28.9717Q62.356 29.9385 62.6123 30.6489Q62.8687 31.3594 63.4033 31.7476Q63.938 32.1357 64.7803 32.1357Q65.6152 32.1357 66.1536 31.7476Q66.6919 31.3594 66.9482 30.6489Q67.2046 29.9385 67.2046 28.9717Q67.2046 28.0122 66.9482 27.3127Q66.6919 26.6133 66.1572 26.2324Q65.6226 25.8516 64.7729 25.8516Q63.5205 25.8516 62.9382 26.6792Q62.356 27.5068 62.356 28.9717ZM70.1489 28.1807Q70.1489 26.4668 70.4785 25.2546Q70.8081 24.0425 71.5002 23.3064Q72.1924 22.5703 73.2837 22.2993Q74.2212 22.043 75.188 21.8562Q76.1548 21.6694 77.0703 21.5303L77.2827 22.5996Q76.8213 22.6655 76.3159 22.7498Q75.8105 22.834 75.3052 22.9255Q74.7998 23.0171 74.353 23.116Q73.9062 23.2148 73.562 23.3174Q72.9395 23.4858 72.489 23.9033Q72.0386 24.3208 71.7786 25.0532Q71.5186 25.7856 71.4673 26.8989L71.5552 26.8989Q71.7749 26.5767 72.1558 26.2617Q72.5366 25.9468 73.064 25.738Q73.5913 25.5293 74.2505 25.5293Q75.2905 25.5293 75.9863 25.9797Q76.6821 26.4302 77.0337 27.2432Q77.3853 28.0562 77.3853 29.1475Q77.3853 30.4585 76.9348 31.3521Q76.4844 32.2456 75.6714 32.696Q74.8584 33.1465 73.7598 33.1465Q72.9102 33.1465 72.24 32.8169Q71.5698 32.4873 71.1047 31.8501Q70.6396 31.2129 70.3943 30.29Q70.1489 29.3672 70.1489 28.1807ZM73.855 32.1357Q74.5508 32.1357 75.0525 31.8428Q75.5542 31.5498 75.8289 30.9163Q76.1035 30.2827 76.1035 29.2646Q76.1035 27.9902 75.6165 27.2688Q75.1294 26.5474 74.0601 26.5474Q73.3936 26.5474 72.8516 26.8293Q72.3096 27.1113 71.936 27.4995Q71.5625 27.8877 71.394 28.1953Q71.394 28.9424 71.5039 29.6455Q71.6138 30.3486 71.8848 30.9126Q72.1558 31.4766 72.6355 31.8062Q73.1152 32.1357 73.855 32.1357ZM82.4902 24.8408Q83.9258 24.8408 84.6216 25.4854Q85.3174 26.1299 85.3174 27.5435L85.3174 33L84.4312 33L84.1968 31.8135L84.1382 31.8135Q83.8013 32.2529 83.4351 32.5496Q83.0688 32.8462 82.5891 32.9963Q82.1094 33.1465 81.4136 33.1465Q80.6812 33.1465 80.1135 32.8901Q79.5459 32.6338 79.22 32.1138Q78.894 31.5938 78.894 30.7954Q78.894 29.5942 79.8462 28.9497Q80.7983 28.3052 82.7466 28.2466L84.1309 28.188L84.1309 27.6973Q84.1309 26.6572 83.6841 26.2397Q83.2373 25.8223 82.4243 25.8223Q81.7944 25.8223 81.2231 26.0054Q80.6519 26.1885 80.1392 26.4375L79.7656 25.5146Q80.3076 25.2363 81.0107 25.0386Q81.7139 24.8408 82.4902 24.8408ZM84.1162 29.0449L82.8931 29.0962Q81.3916 29.1548 80.7764 29.5869Q80.1611 30.019 80.1611 30.8101Q80.1611 31.4985 80.5786 31.8281Q80.9961 32.1577 81.6846 32.1577Q82.7539 32.1577 83.4351 31.5645Q84.1162 30.9712 84.1162 29.7847L84.1162 29.0449ZM94.2017 26.9868Q94.2017 27.7412 93.7622 28.1624Q93.3228 28.5835 92.627 28.73L92.627 28.7886Q93.3813 28.8911 93.927 29.3269Q94.4727 29.7627 94.4727 30.6562Q94.4727 31.3447 94.1431 31.8721Q93.8135 32.3994 93.1104 32.6997Q92.4072 33 91.2793 33L87.8223 33L87.8223 24.9727L91.25 24.9727Q92.1143 24.9727 92.7771 25.1667Q93.4399 25.3608 93.8208 25.8003Q94.2017 26.2397 94.2017 26.9868ZM93.2056 30.6562Q93.2056 29.9458 92.6672 29.6309Q92.1289 29.3159 91.1035 29.3159L89.0454 29.3159L89.0454 32.0112L91.1328 32.0112Q92.1436 32.0112 92.6746 31.7Q93.2056 31.3887 93.2056 30.6562ZM92.9639 27.126Q92.9639 26.5547 92.5464 26.2727Q92.1289 25.9907 91.1768 25.9907L89.0454 25.9907L89.0454 28.2979L90.9644 28.2979Q91.9531 28.2979 92.4585 28.0122Q92.9639 27.7266 92.9639 27.126ZM97.5928 24.9727L97.5928 30.019Q97.5928 30.1655 97.5854 30.3962Q97.5781 30.627 97.5635 30.887Q97.5488 31.147 97.5378 31.385Q97.5269 31.623 97.5122 31.7769L101.892 24.9727L103.386 24.9727L103.386 33L102.251 33L102.251 28.0781Q102.251 27.8438 102.258 27.4775Q102.266 27.1113 102.28 26.7561Q102.295 26.4009 102.302 26.2031L97.937 33L96.4355 33L96.4355 24.9727L97.5928 24.9727ZM111.443 26.0054L108.799 26.0054L108.799 33L107.598 33L107.598 26.0054L104.99 26.0054L104.99 24.9727L111.443 24.9727L111.443 26.0054ZM114.255 28.2832L116.716 28.2832Q117.742 28.2832 118.423 28.5396Q119.104 28.7959 119.445 29.3013Q119.785 29.8066 119.785 30.5537Q119.785 31.3008 119.452 31.8501Q119.119 32.3994 118.427 32.6997Q117.734 33 116.643 33L113.032 33L113.032 24.9727L114.255 24.9727L114.255 28.2832ZM118.562 30.6123Q118.562 29.8726 118.038 29.5833Q117.515 29.2939 116.577 29.2939L114.255 29.2939L114.255 32.0112L116.584 32.0112Q117.463 32.0112 118.013 31.6853Q118.562 31.3594 118.562 30.6123Z" fill="#FFFFFF" fill-opacity="1.000000" fill-rule="evenodd"/>
	</g>
	<circle id="Ellipse 50" cx="149.000000" cy="12.000000" r="12.000000" fill="#FFFFFF" fill-opacity="1.000000"/>
	<circle id="Ellipse 50" cx="149.000000" cy="12.000000" r="11.586206" stroke="#2F74FA" stroke-opacity="1.000000" stroke-width="0.827586"/>
	<path id="+" d="M150.13 11.522L152.627 11.522L152.627 12.3464L150.13 12.3464L150.13 14.9164L149.299 14.9164L149.299 12.3464L146.802 12.3464L146.802 11.522L149.299 11.522L149.299 8.93986L150.13 8.93986L150.13 11.522Z" fill="#2F74FA" fill-opacity="1.000000" fill-rule="evenodd"/>
</svg>
