<svg width="180.000000" height="52.000000" viewBox="0 0 180 52" fill="none" xmlns="http://www.w3.org/2000/svg" xmlns:xlink="http://www.w3.org/1999/xlink">
	<desc>
			Created with Pixso.
	</desc>
	<defs>
		<clipPath id="clip1_6328">
			<rect id="Frame 194" rx="3.000000" width="180.000000" height="40.000000" transform="translate(0.000000 12.000000)" fill="white" fill-opacity="0"/>
		</clipPath>
	</defs>
	<rect id="Frame 194" rx="3.000000" width="180.000000" height="40.000000" transform="translate(0.000000 12.000000)" fill="#2F74FA" fill-opacity="1.000000"/>
	<g clip-path="url(#clip1_6328)">
		<path id="Автомагазин" d="M49.1812 37L47.8628 33.6016L43.5708 33.6016L42.2598 37L41 37L45.1895 26.248L46.3101 26.248L50.4702 37L49.1812 37ZM47.4893 32.4956L46.2368 29.1191Q46.1929 28.9873 46.094 28.687Q45.9951 28.3867 45.8926 28.0645Q45.79 27.7422 45.7241 27.5444Q45.6509 27.8447 45.5667 28.1414Q45.4824 28.438 45.4019 28.6907Q45.3213 28.9434 45.2627 29.1191L43.9883 32.4956L47.4893 32.4956ZM58.146 30.9868Q58.146 31.7412 57.7065 32.1624Q57.2671 32.5835 56.5713 32.73L56.5713 32.7886Q57.3257 32.8911 57.8713 33.3269Q58.417 33.7627 58.417 34.6562Q58.417 35.3447 58.0874 35.8721Q57.7578 36.3994 57.0547 36.6997Q56.3516 37 55.2236 37L51.7666 37L51.7666 28.9727L55.1943 28.9727Q56.0586 28.9727 56.7214 29.1667Q57.3843 29.3608 57.7651 29.8003Q58.146 30.2397 58.146 30.9868ZM57.1499 34.6562Q57.1499 33.9458 56.6116 33.6309Q56.0732 33.3159 55.0479 33.3159L52.9897 33.3159L52.9897 36.0112L55.0771 36.0112Q56.0879 36.0112 56.6189 35.7Q57.1499 35.3887 57.1499 34.6562ZM56.9082 31.126Q56.9082 30.5547 56.4907 30.2727Q56.0732 29.9907 55.1211 29.9907L52.9897 29.9907L52.9897 32.2979L54.9087 32.2979Q55.8975 32.2979 56.4028 32.0122Q56.9082 31.7266 56.9082 31.126ZM65.8511 30.0054L63.207 30.0054L63.207 37L62.0059 37L62.0059 30.0054L59.3984 30.0054L59.3984 28.9727L65.8511 28.9727L65.8511 30.0054ZM74.3618 32.9717Q74.3618 33.9604 74.1055 34.7368Q73.8491 35.5132 73.3657 36.0479Q72.8823 36.5825 72.1975 36.8645Q71.5127 37.1465 70.6484 37.1465Q69.8428 37.1465 69.1726 36.8645Q68.5024 36.5825 68.0154 36.0479Q67.5283 35.5132 67.261 34.7368Q66.9937 33.9604 66.9937 32.9717Q66.9937 31.6533 67.4404 30.7268Q67.8872 29.8003 68.7185 29.3132Q69.5498 28.8262 70.6997 28.8262Q71.7983 28.8262 72.6223 29.3169Q73.4463 29.8076 73.9041 30.7341Q74.3618 31.6606 74.3618 32.9717ZM68.2534 32.9717Q68.2534 33.9385 68.5098 34.6489Q68.7661 35.3594 69.3008 35.7476Q69.8354 36.1357 70.6777 36.1357Q71.5127 36.1357 72.051 35.7476Q72.5894 35.3594 72.8457 34.6489Q73.1021 33.9385 73.1021 32.9717Q73.1021 32.0122 72.8457 31.3127Q72.5894 30.6133 72.0547 30.2324Q71.52 29.8516 70.6704 29.8516Q69.418 29.8516 68.8357 30.6792Q68.2534 31.5068 68.2534 32.9717ZM84.938 28.9727L84.938 37L83.8394 37L83.8394 31.7705Q83.8394 31.4482 83.8577 31.115Q83.876 30.7817 83.9053 30.4448L83.8613 30.4448L81.1953 37L80.1626 37L77.5625 30.4448L77.5186 30.4448Q77.5405 30.7817 77.5515 31.115Q77.5625 31.4482 77.5625 31.8145L77.5625 37L76.4565 37L76.4565 28.9727L78.0898 28.9727L80.6826 35.5352L83.312 28.9727L84.938 28.9727ZM90.4678 28.8408Q91.9033 28.8408 92.5991 29.4854Q93.2949 30.1299 93.2949 31.5435L93.2949 37L92.4087 37L92.1743 35.8135L92.1157 35.8135Q91.7788 36.2529 91.4126 36.5496Q91.0464 36.8462 90.5667 36.9963Q90.0869 37.1465 89.3911 37.1465Q88.6587 37.1465 88.0911 36.8901Q87.5234 36.6338 87.1975 36.1138Q86.8716 35.5938 86.8716 34.7954Q86.8716 33.5942 87.8237 32.9497Q88.7759 32.3052 90.7241 32.2466L92.1084 32.188L92.1084 31.6973Q92.1084 30.6572 91.6616 30.2397Q91.2148 29.8223 90.4019 29.8223Q89.772 29.8223 89.2007 30.0054Q88.6294 30.1885 88.1167 30.4375L87.7432 29.5146Q88.2852 29.2363 88.9883 29.0386Q89.6914 28.8408 90.4678 28.8408ZM92.0938 33.0449L90.8706 33.0962Q89.3691 33.1548 88.7539 33.5869Q88.1387 34.019 88.1387 34.8101Q88.1387 35.4985 88.5562 35.8281Q88.9736 36.1577 89.6621 36.1577Q90.7314 36.1577 91.4126 35.5645Q92.0938 34.9712 92.0938 33.7847L92.0938 33.0449ZM100.67 28.9727L100.67 30.0054L97.0229 30.0054L97.0229 37L95.7998 37L95.7998 28.9727L100.67 28.9727ZM105.27 28.8408Q106.706 28.8408 107.401 29.4854Q108.097 30.1299 108.097 31.5435L108.097 37L107.211 37L106.977 35.8135L106.918 35.8135Q106.581 36.2529 106.215 36.5496Q105.849 36.8462 105.369 36.9963Q104.889 37.1465 104.193 37.1465Q103.461 37.1465 102.893 36.8901Q102.326 36.6338 102 36.1138Q101.674 35.5938 101.674 34.7954Q101.674 33.5942 102.626 32.9497Q103.578 32.3052 105.526 32.2466L106.911 32.188L106.911 31.6973Q106.911 30.6572 106.464 30.2397Q106.017 29.8223 105.204 29.8223Q104.574 29.8223 104.003 30.0054Q103.432 30.1885 102.919 30.4375L102.545 29.5146Q103.087 29.2363 103.791 29.0386Q104.494 28.8408 105.27 28.8408ZM106.896 33.0449L105.673 33.0962Q104.171 33.1548 103.556 33.5869Q102.941 34.019 102.941 34.8101Q102.941 35.4985 103.358 35.8281Q103.776 36.1577 104.464 36.1577Q105.534 36.1577 106.215 35.5645Q106.896 34.9712 106.896 33.7847L106.896 33.0449ZM112.667 28.8262Q113.568 28.8262 114.228 29.0715Q114.887 29.3169 115.246 29.7856Q115.604 30.2544 115.604 30.9282Q115.604 31.6533 115.209 32.0854Q114.813 32.5176 114.118 32.708L114.118 32.7666Q114.608 32.8984 115.008 33.1438Q115.407 33.3892 115.645 33.7883Q115.883 34.1875 115.883 34.7808Q115.883 35.4546 115.517 35.9929Q115.15 36.5312 114.403 36.8389Q113.656 37.1465 112.514 37.1465Q111.95 37.1465 111.444 37.0842Q110.939 37.022 110.529 36.9048Q110.119 36.7876 109.811 36.6265L109.811 35.5205Q110.324 35.7695 111.012 35.96Q111.701 36.1504 112.499 36.1504Q113.114 36.1504 113.605 36.0076Q114.096 35.8647 114.385 35.5461Q114.674 35.2275 114.674 34.7075Q114.674 34.2314 114.418 33.9202Q114.162 33.6089 113.653 33.4587Q113.144 33.3086 112.367 33.3086L111.291 33.3086L111.291 32.3125L112.177 32.3125Q113.209 32.3125 113.825 32.0195Q114.44 31.7266 114.44 31.0308Q114.44 30.4302 113.964 30.1335Q113.488 29.8369 112.602 29.8369Q111.942 29.8369 111.437 29.9724Q110.932 30.1079 110.346 30.3569L109.914 29.3828Q110.543 29.1045 111.232 28.9653Q111.92 28.8262 112.667 28.8262ZM119.01 28.9727L119.01 34.019Q119.01 34.1655 119.003 34.3962Q118.996 34.627 118.981 34.887Q118.966 35.147 118.955 35.385Q118.944 35.623 118.93 35.7769L123.31 28.9727L124.804 28.9727L124.804 37L123.668 37L123.668 32.0781Q123.668 31.8438 123.676 31.4775Q123.683 31.1113 123.698 30.7561Q123.712 30.4009 123.72 30.2031L119.354 37L117.853 37L117.853 28.9727L119.01 28.9727ZM128.612 28.9727L128.612 32.3418L133.087 32.3418L133.087 28.9727L134.303 28.9727L134.303 37L133.087 37L133.087 33.3745L128.612 33.3745L128.612 37L127.389 37L127.389 28.9727L128.612 28.9727Z" fill="#FFFFFF" fill-opacity="1.000000" fill-rule="evenodd"/>
	</g>
	<circle id="Ellipse 50" cx="149.000000" cy="12.000000" r="12.000000" fill="#FFFFFF" fill-opacity="1.000000"/>
	<circle id="Ellipse 50" cx="149.000000" cy="12.000000" r="11.586206" stroke="#2F74FA" stroke-opacity="1.000000" stroke-width="0.827586"/>
	<path id="+" d="M150.13 11.522L152.627 11.522L152.627 12.3464L150.13 12.3464L150.13 14.9164L149.299 14.9164L149.299 12.3464L146.802 12.3464L146.802 11.522L149.299 11.522L149.299 8.93986L150.13 8.93986L150.13 11.522Z" fill="#2F74FA" fill-opacity="1.000000" fill-rule="evenodd"/>
</svg>
