<svg width="42" height="42" viewBox="0 0 42 42" fill="none" xmlns="http://www.w3.org/2000/svg">
<g clip-path="url(#clip0_1_4151)">
<path d="M40.43 25.5195C37.6899 36.5093 26.5577 43.1975 15.5654 40.457C4.57767 37.7172 -2.11125 26.5856 0.630061 15.5967C3.36897 4.60569 14.5011 -2.08298 25.49 0.65682C36.4816 3.39662 43.1701 14.5294 40.4297 25.5197L40.4299 25.5195H40.43Z" fill="#F7931A"/>
<path d="M29.5775 17.6337C29.9859 14.9038 27.9073 13.4364 25.065 12.4574L25.987 8.75955L23.7358 8.19865L22.8382 11.7992C22.2463 11.6516 21.6385 11.5125 21.0344 11.3746L21.9386 7.75035L19.6887 7.18945L18.7661 10.8861C18.2764 10.7746 17.7953 10.6644 17.3286 10.5483L17.3312 10.5367L14.2267 9.76153L13.6278 12.1658C13.6278 12.1658 15.2981 12.5486 15.2629 12.5721C16.1745 12.7997 16.3394 13.4031 16.312 13.8813L15.2617 18.0941C15.3244 18.1101 15.4059 18.1331 15.4957 18.1692C15.4206 18.1506 15.3407 18.1302 15.2577 18.1104L13.7855 24.0118C13.6741 24.2888 13.3913 24.7044 12.754 24.5466C12.7765 24.5792 11.1177 24.1383 11.1177 24.1383L10 26.715L12.9297 27.4452C13.4747 27.5819 14.0088 27.7249 14.5347 27.8593L13.6031 31.5996L15.8518 32.1605L16.7744 28.4599C17.3887 28.6267 17.9848 28.7805 18.5685 28.9255L17.649 32.6086L19.9004 33.1695L20.8319 29.4362C24.6708 30.1627 27.5573 29.8698 28.7723 26.3979C29.7513 23.6026 28.7236 21.9903 26.7039 20.9389C28.1749 20.5997 29.2829 19.6323 29.5783 17.634L29.5776 17.6335L29.5775 17.6337ZM24.4339 24.8456C23.7382 27.6408 19.0313 26.1298 17.5052 25.7509L18.7415 20.7956C20.2674 21.1765 25.161 21.9304 24.434 24.8456H24.4339ZM25.1301 17.5932C24.4955 20.1358 20.5779 18.844 19.307 18.5273L20.4278 14.0332C21.6987 14.3499 25.7913 14.9411 25.1304 17.5932H25.1301Z" fill="white"/>
</g>
<defs>
<clipPath id="clip0_1_4151">
<rect width="41.0282" height="41.0282" fill="white" transform="translate(0.015625 0.0429688)"/>
</clipPath>
</defs>
</svg>
