<svg width="41.027344" height="41.028198" viewBox="0 0 41.0273 41.0282" fill="none" xmlns="http://www.w3.org/2000/svg" xmlns:xlink="http://www.w3.org/1999/xlink">
	<desc>
			Created with Pixso.
	</desc>
	<defs/>
	<path id="Vector" d="M40.4141 25.4766C37.6738 36.4663 26.543 43.1545 15.5488 40.414C4.5625 37.6742 -2.12695 26.5426 0.615234 15.5537C3.35352 4.56274 14.4863 -2.12598 25.4746 0.613831C36.4668 3.35364 43.1543 14.4865 40.4141 25.4767L40.4141 25.4766L40.4141 25.4766Z" fill="#F7931A" fill-opacity="1.000000" fill-rule="nonzero"/>
	<path id="Vector" d="M29.5605 17.5908C29.9688 14.861 27.8906 13.3935 25.0469 12.4146L25.9688 8.71667L23.7188 8.15582L22.8203 11.7563C22.2285 11.6088 21.6211 11.4697 21.0176 11.3318L21.9219 7.70752L19.6719 7.14661L18.748 10.8433C18.2578 10.7318 17.7773 10.6216 17.3105 10.5055L17.3145 10.4938L14.209 9.71869L13.6094 12.1229C13.6094 12.1229 15.2812 12.5057 15.2461 12.5293C16.1562 12.7568 16.3223 13.3602 16.2949 13.8385L15.2441 18.0513C15.3066 18.0672 15.3887 18.0903 15.4785 18.1263C15.4023 18.1077 15.3223 18.0873 15.2402 18.0675L13.7676 23.969C13.6562 24.2459 13.373 24.6616 12.7363 24.5037C12.7598 24.5364 11.0996 24.0954 11.0996 24.0954L9.98242 26.6721L12.9121 27.4023C13.457 27.539 13.9902 27.682 14.5176 27.8165L13.5859 31.5568L15.834 32.1177L16.7559 28.4171C17.3711 28.5838 17.9668 28.7376 18.5508 28.8826L17.6309 32.5658L19.8828 33.1266L20.8145 29.3934C24.6523 30.1198 27.5391 29.827 28.7539 26.355C29.7344 23.5598 28.7051 21.9474 26.6855 20.8961C28.1582 20.5569 29.2656 19.5895 29.5605 17.5911L29.5605 17.5906L29.5605 17.5908ZM24.416 24.8027C23.7207 27.598 19.0137 26.0869 17.4883 25.708L18.7246 20.7528C20.25 21.1337 25.1426 21.8875 24.416 24.8027L24.416 24.8027ZM25.1133 17.5503C24.4785 20.0929 20.5605 18.8011 19.2891 18.4844L20.4102 13.9903C21.6816 14.3071 25.7734 14.8983 25.1133 17.5503L25.1133 17.5503Z" fill="#FFFFFF" fill-opacity="1.000000" fill-rule="nonzero"/>
</svg>
