<svg width="20.000000" height="20.000000" viewBox="0 0 20 20" fill="none" xmlns="http://www.w3.org/2000/svg" xmlns:xlink="http://www.w3.org/1999/xlink">
	<desc>
			Created with Pixso.
	</desc>
	<defs>
		<clipPath id="clip1_1042">
			<rect id="message-bubble-svgrepo-com 2" width="20.000000" height="20.000000" fill="white" fill-opacity="0"/>
		</clipPath>
	</defs>
	<rect id="message-bubble-svgrepo-com 2" width="20.000000" height="20.000000" fill="#FFFFFF" fill-opacity="0"/>
	<g clip-path="url(#clip1_1042)">
		<path id="Vector" d="M7.54492 17.8507C8.44531 18.1636 9.41211 18.3334 10.417 18.3334C15.249 18.3334 19.167 14.4159 19.167 9.58337C19.167 4.75085 15.249 0.833374 10.417 0.833374C5.58496 0.833374 1.66699 4.75085 1.66699 9.58337C1.66699 11.3358 2.18262 12.9698 3.07129 14.3394C3.0459 14.6042 3.00195 14.9081 2.93359 15.2533C2.74219 16.2096 2.45996 16.8574 2.24023 17.2516C2.13086 17.4492 2.03613 17.5846 1.97559 17.6644C1.94434 17.7043 1.92285 17.7303 1.91113 17.7434L1.90332 17.7522C1.64355 18.0189 1.5918 18.4263 1.77832 18.7496C1.9668 19.0762 2.35059 19.2357 2.71484 19.1385L7.54492 17.8507ZM2.92871 18.0466L7.58301 16.8054L7.87305 16.9061Q8.38379 17.0835 8.9082 17.1873Q9.64844 17.3334 10.417 17.3334Q11.3008 17.3334 12.1416 17.1421Q12.8008 16.9922 13.4336 16.7247Q14.0801 16.4512 14.6582 16.0726Q15.3232 15.6373 15.8975 15.0635Q16.4707 14.4896 16.9062 13.825Q17.2852 13.2467 17.5586 12.5997Q17.8262 11.9674 17.9756 11.3083Q18.167 10.4677 18.167 9.58337Q18.167 8.6991 17.9756 7.85828Q17.8262 7.19934 17.5586 6.56702Q17.2852 5.92017 16.9062 5.34204Q16.4707 4.67725 15.8975 4.10327Q15.3232 3.52942 14.6582 3.09412Q14.0801 2.71558 13.4336 2.44202Q12.8008 2.17456 12.1416 2.02466Q11.3008 1.83337 10.417 1.83337Q9.5332 1.83337 8.69238 2.02466Q8.0332 2.17456 7.40039 2.44202Q6.75391 2.71558 6.17578 3.09412Q5.51074 3.52942 4.93652 4.10327Q4.36328 4.67725 3.92773 5.34192Q3.54883 5.92017 3.27539 6.56702Q3.00781 7.19934 2.8584 7.85852Q2.66699 8.69922 2.66699 9.58337Q2.66699 10.2908 2.79102 10.9756Q2.86816 11.4008 2.99414 11.8171Q3.13867 12.2993 3.34277 12.7546Q3.58496 13.2936 3.91016 13.7952L4.10059 14.088L4.06641 14.4354Q4.02051 14.917 3.91406 15.4493Q3.64844 16.7769 3.11523 17.7372Q3.02246 17.9027 2.92871 18.0466Z" fill="#000000" fill-opacity="1.000000" fill-rule="evenodd"/>
	</g>
</svg>
