<svg width="20.000000" height="20.000000" viewBox="0 0 20 20" fill="none" xmlns="http://www.w3.org/2000/svg" xmlns:xlink="http://www.w3.org/1999/xlink">
	<desc>
			Created with Pixso.
	</desc>
	<defs/>
	<path id="Vector" d="M0.27002 18.4568C-0.0268555 18.7478 -0.0859375 19.1922 0.127441 19.5449C0.342773 19.9012 0.781738 20.0752 1.19775 19.9692L1.71582 19.8373L1.71777 19.8369L6.71729 18.5643C7.74658 18.9057 8.85156 19.0909 10 19.0909C15.5229 19.0909 20 14.8172 20 9.54541C20 4.27362 15.5229 0 10 0C4.47705 0 0 4.27362 0 9.54541C0 11.4572 0.589844 13.2398 1.60498 14.7338C1.57568 15.0228 1.52588 15.3541 1.44727 15.7308C1.22852 16.774 0.905762 17.4808 0.655762 17.9108C0.530273 18.1263 0.421875 18.274 0.352051 18.361C0.317383 18.4046 0.291992 18.433 0.278809 18.4472L0.27002 18.4568ZM3.05322 17.4331L6.79102 16.4817L7.34668 16.666Q7.7832 16.8106 8.22998 16.9061Q9.09521 17.0909 10 17.0909Q11.0366 17.0909 12.0142 16.8511Q12.5889 16.7101 13.1436 16.4862Q14.0083 16.1371 14.7529 15.6166Q15.248 15.2704 15.6899 14.8484Q16.4302 14.1419 16.9434 13.2975Q17.1909 12.8902 17.3857 12.4507Q17.6875 11.7692 17.8413 11.0557Q18 10.3177 18 9.54541Q18 8.77319 17.8413 8.03516Q17.6875 7.32169 17.3857 6.64014Q17.1909 6.20071 16.9434 5.79337Q16.4302 4.94897 15.6899 4.24249Q15.248 3.8204 14.7524 3.47418Q14.0083 2.95367 13.1436 2.60468Q12.5889 2.38074 12.0142 2.23975Q11.0366 2 10 2Q8.96338 2 7.98584 2.23975Q7.41113 2.38074 6.85645 2.60468Q5.9917 2.95367 5.24756 3.47415Q4.75195 3.82037 4.31006 4.24249Q3.56982 4.94894 3.05664 5.79333Q2.80908 6.20068 2.61426 6.64014Q2.3125 7.32169 2.15869 8.03516Q2 8.77319 2 9.54541Q2 10.17 2.10547 10.7763Q2.18652 11.2414 2.32959 11.6956Q2.42627 12.0031 2.54932 12.2995Q2.83398 12.9838 3.25928 13.6097L3.66797 14.2112L3.59473 14.9349Q3.53662 15.5106 3.40479 16.1409Q3.26123 16.8255 3.05322 17.4331Z" fill="#3A64FA" fill-opacity="1.000000" fill-rule="evenodd"/>
</svg>
