<svg width="164.000000" height="52.000000" viewBox="0 0 164 52" fill="none" xmlns="http://www.w3.org/2000/svg" xmlns:xlink="http://www.w3.org/1999/xlink">
	<desc>
			Created with Pixso.
	</desc>
	<defs>
		<clipPath id="clip23_2983">
			<rect id="Frame 194" rx="3.000000" width="164.000000" height="40.000000" transform="translate(0.000000 12.000000)" fill="white" fill-opacity="0"/>
		</clipPath>
	</defs>
	<rect id="Frame 194" rx="3.000000" width="164.000000" height="40.000000" transform="translate(0.000000 12.000000)" fill="#2F74FA" fill-opacity="1.000000"/>
	<g clip-path="url(#clip23_2983)">
		<path id="Сотрудник" d="M47.0425 27.2368Q46.1562 27.2368 45.4495 27.5408Q44.7427 27.8447 44.2483 28.4197Q43.7539 28.9946 43.4902 29.8076Q43.2266 30.6206 43.2266 31.6387Q43.2266 32.9863 43.6477 33.9788Q44.0688 34.9712 44.9075 35.5132Q45.7461 36.0552 47.0059 36.0552Q47.7236 36.0552 48.3572 35.9343Q48.9907 35.8135 49.5913 35.6304L49.5913 36.7144Q49.0054 36.9341 48.3608 37.0403Q47.7163 37.1465 46.8301 37.1465Q45.1968 37.1465 44.1018 36.469Q43.0068 35.7915 42.4612 34.5537Q41.9155 33.3159 41.9155 31.6313Q41.9155 30.4155 42.2561 29.4084Q42.5967 28.4014 43.2522 27.6689Q43.9077 26.9365 44.8635 26.5374Q45.8193 26.1382 47.0571 26.1382Q47.8701 26.1382 48.6245 26.2993Q49.3789 26.4604 49.9868 26.7607L49.4888 27.8154Q48.9761 27.5811 48.3645 27.4089Q47.7529 27.2368 47.0425 27.2368ZM58.6514 32.9717Q58.6514 33.9604 58.395 34.7368Q58.1387 35.5132 57.6553 36.0479Q57.1719 36.5825 56.4871 36.8645Q55.8022 37.1465 54.938 37.1465Q54.1323 37.1465 53.4622 36.8645Q52.792 36.5825 52.3049 36.0479Q51.8179 35.5132 51.5505 34.7368Q51.2832 33.9604 51.2832 32.9717Q51.2832 31.6533 51.73 30.7268Q52.1768 29.8003 53.0081 29.3132Q53.8394 28.8262 54.9893 28.8262Q56.0879 28.8262 56.9119 29.3169Q57.7358 29.8076 58.1936 30.7341Q58.6514 31.6606 58.6514 32.9717ZM52.543 32.9717Q52.543 33.9385 52.7993 34.6489Q53.0557 35.3594 53.5903 35.7476Q54.125 36.1357 54.9673 36.1357Q55.8022 36.1357 56.3406 35.7476Q56.8789 35.3594 57.1353 34.6489Q57.3916 33.9385 57.3916 32.9717Q57.3916 32.0122 57.1353 31.3127Q56.8789 30.6133 56.3442 30.2324Q55.8096 29.8516 54.96 29.8516Q53.7075 29.8516 53.1252 30.6792Q52.543 31.5068 52.543 32.9717ZM66.2246 30.0054L63.5806 30.0054L63.5806 37L62.3794 37L62.3794 30.0054L59.772 30.0054L59.772 28.9727L66.2246 28.9727L66.2246 30.0054ZM71.5859 28.8262Q73.0874 28.8262 73.981 29.8589Q74.8745 30.8916 74.8745 32.9644Q74.8745 34.334 74.4644 35.2642Q74.0542 36.1943 73.3108 36.6704Q72.5674 37.1465 71.5566 37.1465Q70.9194 37.1465 70.436 36.978Q69.9526 36.8096 69.6084 36.5239Q69.2642 36.2383 69.0371 35.9014L68.9492 35.9014Q68.9712 36.187 69.0042 36.5898Q69.0371 36.9927 69.0371 37.293L69.0371 40.5889L67.814 40.5889L67.814 28.9727L68.8174 28.9727L68.9785 30.1592L69.0371 30.1592Q69.2715 29.793 69.6084 29.489Q69.9453 29.1851 70.4324 29.0056Q70.9194 28.8262 71.5859 28.8262ZM71.3735 29.8516Q70.5386 29.8516 70.0295 30.1738Q69.5205 30.4961 69.2861 31.137Q69.0518 31.7778 69.0371 32.7446L69.0371 32.979Q69.0371 33.9971 69.2605 34.7002Q69.4839 35.4033 70.0002 35.7695Q70.5166 36.1357 71.3882 36.1357Q72.1353 36.1357 72.6333 35.7329Q73.1313 35.3301 73.3767 34.6086Q73.6221 33.8872 73.6221 32.9497Q73.6221 31.5288 73.0691 30.6902Q72.5161 29.8516 71.3735 29.8516ZM75.7241 28.9727L77.0278 28.9727L78.8003 33.6309Q78.9541 34.041 79.0859 34.4182Q79.2178 34.7954 79.3203 35.1396Q79.4229 35.4839 79.4814 35.8062L79.5327 35.8062Q79.6353 35.4399 79.8257 34.843Q80.0161 34.2461 80.2358 33.6235L81.9131 28.9727L83.2241 28.9727L79.7305 38.1792Q79.4521 38.9189 79.0823 39.4683Q78.7124 40.0176 78.1851 40.3142Q77.6577 40.6108 76.9106 40.6108Q76.5664 40.6108 76.3027 40.5706Q76.0391 40.5303 75.8486 40.479L75.8486 39.5049Q76.0098 39.5415 76.2405 39.5708Q76.4712 39.6001 76.7202 39.6001Q77.1743 39.6001 77.5076 39.428Q77.8408 39.2559 78.0825 38.9263Q78.3242 38.5967 78.5 38.1426L78.9395 37.0146L75.7241 28.9727ZM90.3872 28.9727L90.3872 35.9673L91.5371 35.9673L91.5371 39.7759L90.3579 39.7759L90.3579 37L84.6743 37L84.6743 39.7759L83.5098 39.7759L83.5098 35.9673L84.1396 35.9673Q84.8281 35.0151 85.2822 33.8799Q85.7363 32.7446 85.9707 31.4958Q86.2051 30.2471 86.2197 28.9727L90.3872 28.9727ZM89.208 29.9395L87.3037 29.9395Q87.2378 31.0088 86.9924 32.1147Q86.7471 33.2207 86.3442 34.2205Q85.9414 35.2202 85.4067 35.9673L89.208 35.9673L89.208 29.9395ZM94.3496 28.9727L94.3496 32.3418L98.8247 32.3418L98.8247 28.9727L100.041 28.9727L100.041 37L98.8247 37L98.8247 33.3745L94.3496 33.3745L94.3496 37L93.1265 37L93.1265 28.9727L94.3496 28.9727ZM103.776 28.9727L103.776 34.019Q103.776 34.1655 103.769 34.3962Q103.761 34.627 103.747 34.887Q103.732 35.147 103.721 35.385Q103.71 35.623 103.695 35.7769L108.075 28.9727L109.569 28.9727L109.569 37L108.434 37L108.434 32.0781Q108.434 31.8438 108.441 31.4775Q108.449 31.1113 108.463 30.7561Q108.478 30.4009 108.485 30.2031L104.12 37L102.619 37L102.619 28.9727L103.776 28.9727ZM116.835 28.9727L118.175 28.9727L114.711 32.8472L118.454 37L117.025 37L113.378 32.9277L113.378 37L112.155 37L112.155 28.9727L113.378 28.9727L113.378 32.8691L116.835 28.9727Z" fill="#FFFFFF" fill-opacity="1.000000" fill-rule="evenodd"/>
	</g>
	<circle id="Ellipse 50" cx="140.000000" cy="12.000000" r="12.000000" fill="#FFFFFF" fill-opacity="1.000000"/>
	<circle id="Ellipse 50" cx="140.000000" cy="12.000000" r="11.586206" stroke="#2F74FA" stroke-opacity="1.000000" stroke-width="0.827586"/>
	<path id="+" d="M141.13 11.522L143.627 11.522L143.627 12.3464L141.13 12.3464L141.13 14.9164L140.299 14.9164L140.299 12.3464L137.802 12.3464L137.802 11.522L140.299 11.522L140.299 8.93986L141.13 8.93986L141.13 11.522Z" fill="#2F74FA" fill-opacity="1.000000" fill-rule="evenodd"/>
</svg>
