<svg width="22.000000" height="20.000000" viewBox="0 0 22 20" fill="none" xmlns="http://www.w3.org/2000/svg" xmlns:xlink="http://www.w3.org/1999/xlink">
	<desc>
			Created with Pixso.
	</desc>
	<defs/>
	<path id="Vector" d="M4.05371 20C2.96045 20 1.9585 19.5914 1.18408 18.8195C0.410156 18.0477 0 17.0488 0 15.9591C0 14.8695 0.410156 13.8706 1.18408 13.0988L12.7534 1.56641C14.8486 -0.522125 18.3105 -0.522125 20.4058 1.56641C21.4077 2.56528 22 3.92734 22 5.38025C22 6.83313 21.4536 8.14984 20.4058 9.19409L11.7515 17.8207L10.8408 16.9126L19.4946 8.28604C21.0889 6.69693 21.0889 4.06357 19.4946 2.47446C17.9004 0.885345 15.2588 0.885345 13.6646 2.47446L2.09521 14.0068C1.54883 14.5062 1.27539 15.2327 1.27539 15.9591C1.27539 16.6856 1.54883 17.412 2.09521 17.9115C3.18848 19.0011 4.91943 19.0011 6.01221 17.9115L14.6665 9.28491C15.2134 8.74005 15.2134 7.832 14.6665 7.28717C14.1201 6.74234 13.209 6.74234 12.6626 7.28717L6.87793 13.0533L5.9668 12.1453L11.7515 6.37912C12.7993 5.33484 14.4844 5.33484 15.5322 6.37912C16.5796 7.42337 16.5796 9.10327 15.5322 10.1476L6.87793 18.7741C6.14893 19.5914 5.14697 20 4.05371 20Z" fill="#FFFFFF" fill-opacity="1.000000" fill-rule="nonzero"/>
</svg>
