<svg width="67.000000" height="35.000000" viewBox="0 0 67 35" fill="none" xmlns="http://www.w3.org/2000/svg" xmlns:xlink="http://www.w3.org/1999/xlink">
	<desc>
			Created with Pixso.
	</desc>
	<defs/>
	<rect id="Rectangle 74" y="6.000000" rx="5.000000" width="60.000000" height="29.000000" fill="#2F74FA" fill-opacity="1.000000"/>
	<path id="Игнор" d="M7.47949 14.292L8.64404 14.292L8.64404 20.481Q8.64404 20.8325 8.63672 21.2463Q8.62939 21.6602 8.61475 22.0557Q8.6001 22.4512 8.58179 22.7734Q8.56348 23.0957 8.54883 23.2715L8.60742 23.2715L14.5693 14.292L15.939 14.292L15.939 25L14.7744 25L14.7744 18.8843Q14.7744 18.4961 14.7891 18.0603Q14.8037 17.6245 14.822 17.2144Q14.8403 16.8042 14.8623 16.4783Q14.8843 16.1523 14.8916 15.9766L14.8257 15.9766L8.85645 25L7.47949 25L7.47949 14.292ZM23.5488 16.9727L23.5488 18.0054L19.9014 18.0054L19.9014 25L18.6782 25L18.6782 16.9727L23.5488 16.9727ZM26.3687 16.9727L26.3687 20.3418L30.8438 20.3418L30.8438 16.9727L32.0596 16.9727L32.0596 25L30.8438 25L30.8438 21.3745L26.3687 21.3745L26.3687 25L25.1455 25L25.1455 16.9727L26.3687 16.9727ZM41.5591 20.9717Q41.5591 21.9604 41.3027 22.7368Q41.0464 23.5132 40.563 24.0479Q40.0796 24.5825 39.3948 24.8645Q38.71 25.1465 37.8457 25.1465Q37.04 25.1465 36.3699 24.8645Q35.6997 24.5825 35.2126 24.0479Q34.7256 23.5132 34.4583 22.7368Q34.1909 21.9604 34.1909 20.9717Q34.1909 19.6533 34.6377 18.7268Q35.0845 17.8003 35.9158 17.3132Q36.7471 16.8262 37.897 16.8262Q38.9956 16.8262 39.8196 17.3169Q40.6436 17.8076 41.1013 18.7341Q41.5591 19.6606 41.5591 20.9717ZM35.4507 20.9717Q35.4507 21.9385 35.707 22.6489Q35.9634 23.3594 36.498 23.7476Q37.0327 24.1357 37.875 24.1357Q38.71 24.1357 39.2483 23.7476Q39.7866 23.3594 40.043 22.6489Q40.2993 21.9385 40.2993 20.9717Q40.2993 20.0122 40.043 19.3127Q39.7866 18.6133 39.252 18.2324Q38.7173 17.8516 37.8677 17.8516Q36.6152 17.8516 36.033 18.6792Q35.4507 19.5068 35.4507 20.9717ZM47.4331 16.8262Q48.9346 16.8262 49.8281 17.8589Q50.7217 18.8916 50.7217 20.9644Q50.7217 22.334 50.3115 23.2642Q49.9014 24.1943 49.158 24.6704Q48.4146 25.1465 47.4038 25.1465Q46.7666 25.1465 46.2832 24.978Q45.7998 24.8096 45.4556 24.5239Q45.1113 24.2383 44.8843 23.9014L44.7964 23.9014Q44.8184 24.187 44.8513 24.5898Q44.8843 24.9927 44.8843 25.293L44.8843 28.5889L43.6611 28.5889L43.6611 16.9727L44.6646 16.9727L44.8257 18.1592L44.8843 18.1592Q45.1187 17.793 45.4556 17.489Q45.7925 17.1851 46.2795 17.0056Q46.7666 16.8262 47.4331 16.8262ZM47.2207 17.8516Q46.3857 17.8516 45.8767 18.1738Q45.3677 18.4961 45.1333 19.137Q44.8989 19.7778 44.8843 20.7446L44.8843 20.979Q44.8843 21.9971 45.1077 22.7002Q45.3311 23.4033 45.8474 23.7695Q46.3638 24.1357 47.2354 24.1357Q47.9824 24.1357 48.4805 23.7329Q48.9785 23.3301 49.2239 22.6086Q49.4692 21.8872 49.4692 20.9497Q49.4692 19.5288 48.9163 18.6902Q48.3633 17.8516 47.2207 17.8516Z" fill="#FFFFFF" fill-opacity="1.000000" fill-rule="evenodd"/>
	<circle id="Ellipse 50" cx="58.000000" cy="9.000000" r="9.000000" fill="#FFFFFF" fill-opacity="1.000000"/>
	<circle id="Ellipse 50" cx="58.000000" cy="9.000000" r="8.689655" stroke="#2F74FA" stroke-opacity="1.000000" stroke-width="0.620690"/>
	<path id="+" d="M58.8476 8.89152L60.7206 8.89152L60.7206 9.50978L58.8476 9.50978L58.8476 11.4373L58.2248 11.4373L58.2248 9.50978L56.3518 9.50978L56.3518 8.89152L58.2248 8.89152L58.2248 6.95489L58.8476 6.95489L58.8476 8.89152Z" fill="#2F74FA" fill-opacity="1.000000" fill-rule="evenodd"/>
</svg>
