<svg width="14.000000" height="14.000000" viewBox="0 0 14 14" fill="none" xmlns="http://www.w3.org/2000/svg" xmlns:xlink="http://www.w3.org/1999/xlink">
	<desc>
			Created with Pixso.
	</desc>
	<defs>
		<clipPath id="clip385_2914">
			<rect id="fi-rr-user" width="14.000000" height="14.000000" fill="white" fill-opacity="0"/>
		</clipPath>
	</defs>
	<rect id="fi-rr-user" width="14.000000" height="14.000000" fill="#FFFFFF" fill-opacity="0"/>
	<g clip-path="url(#clip385_2914)">
		<path id="Vector" d="M7 7C7.69141 7 8.36719 6.79492 8.94531 6.41016C9.51953 6.02539 9.96875 5.47852 10.2344 4.83984C10.5 4.19922 10.5664 3.49609 10.4336 2.81641C10.2969 2.13867 9.96484 1.51367 9.47656 1.02539C8.98438 0.535156 8.36328 0.203125 7.68359 0.0664062C7.00391 -0.0683594 6.30078 0.00195312 5.66016 0.265625C5.01953 0.53125 4.47266 0.980469 4.08984 1.55469C3.70703 2.13086 3.5 2.80859 3.5 3.5C3.5 4.42773 3.87109 5.31836 4.52734 5.97461C5.18359 6.63086 6.07031 7 7 7ZM7 1.16602C7.46094 1.16602 7.91406 1.30273 8.29688 1.56055C8.67969 1.81641 8.98047 2.18164 9.15625 2.60742C9.33203 3.0332 9.37891 3.50195 9.28906 3.95508C9.19922 4.4082 8.97656 4.82422 8.64844 5.15039C8.32422 5.47656 7.90625 5.69922 7.45703 5.78906C7.00391 5.87891 6.53516 5.83203 6.10547 5.65625C5.67969 5.47852 5.31641 5.17969 5.05859 4.79688C4.80469 4.41211 4.66797 3.96094 4.66797 3.5C4.66797 2.88086 4.91406 2.28711 5.35156 1.84961C5.78906 1.41211 6.38281 1.16602 7 1.16602Z" fill="#FFFFFF" fill-opacity="1.000000" fill-rule="nonzero"/>
		<path id="Vector" d="M7 8.16797C5.60938 8.16992 4.27344 8.72266 3.28906 9.70703C2.30469 10.6914 1.75 12.0254 1.75 13.418C1.75 13.5723 1.8125 13.7207 1.92188 13.8301C2.03125 13.9395 2.17969 14.002 2.33203 14.002C2.48828 14.002 2.63672 13.9395 2.74609 13.8301C2.85547 13.7207 2.91797 13.5723 2.91797 13.418C2.91797 12.3359 3.34766 11.2969 4.11328 10.5312C4.87891 9.76562 5.91797 9.33398 7 9.33398C8.08203 9.33398 9.12109 9.76562 9.88672 10.5312C10.6523 11.2969 11.082 12.3359 11.082 13.418C11.082 13.5723 11.1445 13.7207 11.2539 13.8301C11.3633 13.9395 11.5117 14.002 11.668 14.002C11.8203 14.002 11.9688 13.9395 12.0781 13.8301C12.1875 13.7207 12.25 13.5723 12.25 13.418C12.25 12.0254 11.6953 10.6914 10.7109 9.70703C9.72656 8.72266 8.39062 8.16992 7 8.16797Z" fill="#FFFFFF" fill-opacity="1.000000" fill-rule="nonzero"/>
	</g>
</svg>
