<svg width="34.000000" height="33.169922" viewBox="0 0 34 33.1699" fill="none" xmlns="http://www.w3.org/2000/svg" xmlns:xlink="http://www.w3.org/1999/xlink">
	<desc>
			Created with Pixso.
	</desc>
	<defs>
		<clipPath id="clip386_3489">
			<rect id="fi-rr-user" width="14.000000" height="14.000000" transform="translate(10.000000 10.000000)" fill="white" fill-opacity="0"/>
		</clipPath>
	</defs>
	<rect id="Rectangle 616" rx="16.585365" width="34.000000" height="33.170731" fill="#2F74FA" fill-opacity="1.000000"/>
	<rect id="fi-rr-user" width="14.000000" height="14.000000" transform="translate(10.000000 10.000000)" fill="#FFFFFF" fill-opacity="0"/>
	<g clip-path="url(#clip386_3489)">
		<path id="Vector" d="M17 17C17.6914 17 18.3672 16.7949 18.9453 16.4102C19.5195 16.0254 19.9688 15.4785 20.2344 14.8398C20.5 14.1992 20.5664 13.4961 20.4336 12.8164C20.2969 12.1387 19.9648 11.5137 19.4766 11.0254C18.9844 10.5352 18.3633 10.2031 17.6836 10.0664C17.0039 9.93164 16.3008 10.002 15.6602 10.2656C15.0195 10.5312 14.4727 10.9805 14.0898 11.5547C13.707 12.1309 13.5 12.8086 13.5 13.5C13.5 14.4277 13.8711 15.3184 14.5273 15.9746C15.1836 16.6309 16.0703 17 17 17ZM17 11.166C17.4609 11.166 17.9141 11.3027 18.2969 11.5605C18.6797 11.8164 18.9805 12.1816 19.1562 12.6074C19.332 13.0332 19.3789 13.502 19.2891 13.9551C19.1992 14.4082 18.9766 14.8242 18.6484 15.1504C18.3242 15.4766 17.9062 15.6992 17.457 15.7891C17.0039 15.8789 16.5352 15.832 16.1055 15.6562C15.6797 15.4785 15.3164 15.1797 15.0586 14.7969C14.8047 14.4121 14.668 13.9609 14.668 13.5C14.668 12.8809 14.9141 12.2871 15.3516 11.8496C15.7891 11.4121 16.3828 11.166 17 11.166Z" fill="#FFFFFF" fill-opacity="1.000000" fill-rule="nonzero"/>
		<path id="Vector" d="M17 18.166C15.6094 18.168 14.2734 18.7207 13.2891 19.7051C12.3047 20.6895 11.75 22.0234 11.75 23.416C11.75 23.5703 11.8125 23.7188 11.9219 23.8281C12.0312 23.9375 12.1797 24 12.332 24C12.4883 24 12.6367 23.9375 12.7461 23.8281C12.8555 23.7188 12.918 23.5703 12.918 23.416C12.918 22.334 13.3477 21.2949 14.1133 20.5293C14.8789 19.7637 15.918 19.332 17 19.332C18.082 19.332 19.1211 19.7637 19.8867 20.5293C20.6523 21.2949 21.082 22.334 21.082 23.416C21.082 23.5703 21.1445 23.7188 21.2539 23.8281C21.3633 23.9375 21.5117 24 21.668 24C21.8203 24 21.9688 23.9375 22.0781 23.8281C22.1875 23.7188 22.25 23.5703 22.25 23.416C22.25 22.0234 21.6953 20.6895 20.7109 19.7051C19.7266 18.7207 18.3906 18.168 17 18.166Z" fill="#FFFFFF" fill-opacity="1.000000" fill-rule="nonzero"/>
	</g>
</svg>
