<svg width="83.000000" height="81.000000" viewBox="0 0 83 81" fill="none" xmlns="http://www.w3.org/2000/svg" xmlns:xlink="http://www.w3.org/1999/xlink">
	<desc>
			Created with Pixso.
	</desc>
	<defs/>
	<rect id="Rectangle 298" y="5.000000" rx="10.000000" width="76.000000" height="76.000000" fill="#2F74FA" fill-opacity="1.000000"/>
	<path id="logo" d="M14.6679 50L14.6679 37.2998L16.7527 37.2998L16.7527 48.2279L22.1473 48.2279L22.1473 50L14.6679 50ZM35.6119 43.6325Q35.6119 45.1006 35.2427 46.3037Q34.8735 47.5069 34.1351 48.3712Q33.3968 49.2356 32.2848 49.7046Q31.1729 50.1737 29.6788 50.1737Q28.1586 50.1737 27.0423 49.7046Q25.9261 49.2356 25.192 48.3669Q24.458 47.4982 24.0931 46.2907Q23.7283 45.0832 23.7283 43.6152Q23.7283 41.6519 24.3755 40.1882Q25.0226 38.7244 26.3474 37.9122Q27.6721 37.1 29.6962 37.1Q31.6768 37.1 32.9885 37.9079Q34.3002 38.7158 34.9561 40.1795Q35.6119 41.6432 35.6119 43.6325ZM25.9174 43.6325Q25.9174 45.1006 26.317 46.1734Q26.7166 47.2463 27.5462 47.8239Q28.3758 48.4016 29.6788 48.4016Q30.9905 48.4016 31.8158 47.8239Q32.641 47.2463 33.0319 46.1734Q33.4228 45.1006 33.4228 43.6325Q33.4228 41.4 32.5324 40.1361Q31.642 38.8721 29.6962 38.8721Q28.3931 38.8721 27.5548 39.4455Q26.7166 40.0188 26.317 41.0829Q25.9174 42.1471 25.9174 43.6325ZM43.4648 43.1026L48.2079 43.1026L48.2079 49.4788Q47.2089 49.8089 46.1404 49.9913Q45.0719 50.1737 43.7428 50.1737Q41.8056 50.1737 40.4635 49.4049Q39.1214 48.6362 38.4265 47.1724Q37.7315 45.7087 37.7315 43.6412Q37.7315 41.6519 38.5046 40.1882Q39.2778 38.7244 40.7545 37.9209Q42.2313 37.1174 44.3335 37.1174Q45.3673 37.1174 46.3358 37.3215Q47.3044 37.5257 48.1123 37.8818L47.3826 39.6018Q46.7398 39.2978 45.9406 39.0893Q45.1414 38.8808 44.2814 38.8808Q42.9176 38.8808 41.9316 39.4715Q40.9456 40.0622 40.4157 41.1351Q39.8858 42.2079 39.8858 43.6673Q39.8858 45.0832 40.3115 46.1517Q40.7372 47.2202 41.6449 47.8153Q42.5527 48.4103 43.9947 48.4103Q44.7157 48.4103 45.2196 48.3321Q45.7234 48.2539 46.1491 48.1584L46.1491 44.8834L43.4648 44.8834L43.4648 43.1026ZM62.5238 43.6325Q62.5238 45.1006 62.1546 46.3037Q61.7854 47.5069 61.0471 48.3712Q60.3087 49.2356 59.1967 49.7046Q58.0848 50.1737 56.5907 50.1737Q55.0705 50.1737 53.9542 49.7046Q52.838 49.2356 52.1039 48.3669Q51.3699 47.4982 51.005 46.2907Q50.6402 45.0832 50.6402 43.6152Q50.6402 41.6519 51.2874 40.1882Q51.9345 38.7244 53.2593 37.9122Q54.584 37.1 56.6081 37.1Q58.5887 37.1 59.9004 37.9079Q61.2121 38.7158 61.868 40.1795Q62.5238 41.6432 62.5238 43.6325ZM52.8293 43.6325Q52.8293 45.1006 53.2289 46.1734Q53.6285 47.2463 54.4581 47.8239Q55.2877 48.4016 56.5907 48.4016Q57.9024 48.4016 58.7277 47.8239Q59.5529 47.2463 59.9438 46.1734Q60.3347 45.1006 60.3347 43.6325Q60.3347 41.4 59.4443 40.1361Q58.5539 38.8721 56.6081 38.8721Q55.305 38.8721 54.4667 39.4455Q53.6285 40.0188 53.2289 41.0829Q52.8293 42.1471 52.8293 43.6325Z" fill="#FFFFFF" fill-opacity="1.000000" fill-rule="evenodd"/>
	<circle id="Ellipse 50" cx="71.000000" cy="12.000000" r="12.000000" fill="#FFFFFF" fill-opacity="1.000000"/>
	<circle id="Ellipse 50" cx="71.000000" cy="12.000000" r="11.586206" stroke="#2F74FA" stroke-opacity="1.000000" stroke-width="0.827586"/>
	<path id="+" d="M72.1295 11.522L74.6268 11.522L74.6268 12.3464L72.1295 12.3464L72.1295 14.9164L71.2991 14.9164L71.2991 12.3464L68.8018 12.3464L68.8018 11.522L71.2991 11.522L71.2991 8.93986L72.1295 8.93986L72.1295 11.522Z" fill="#2F74FA" fill-opacity="1.000000" fill-rule="evenodd"/>
</svg>
