<svg width="20.000000" height="20.000000" viewBox="0 0 20 20" fill="none" xmlns="http://www.w3.org/2000/svg" xmlns:xlink="http://www.w3.org/1999/xlink">
	<desc>
			Created with Pixso.
	</desc>
	<defs>
		<clipPath id="clip1_4637">
			<rect id="uil:exit" rx="10.000000" width="20.000000" height="20.000000" fill="white" fill-opacity="0"/>
		</clipPath>
	</defs>
	<path id="uil:exit" d="M0 0L20 0L20 10C20 15.5229 15.5225 20 10 20C4.47754 20 0 15.5229 0 10L0 0Z" fill="#FFFFFF" fill-opacity="0" fill-rule="evenodd"/>
	<g clip-path="url(#clip1_4637)">
		<path id="Vector" d="M3.33301 10C3.33301 10.2212 3.4209 10.4331 3.57715 10.5894C3.7334 10.7456 3.94531 10.8335 4.16602 10.8335L10.4912 10.8335L8.57422 12.7417C8.49609 12.8193 8.43457 12.9114 8.39258 13.0129C8.34961 13.1145 8.32812 13.2234 8.32812 13.3335C8.32812 13.4434 8.34961 13.5522 8.39258 13.6538C8.43457 13.7554 8.49609 13.8477 8.57422 13.925C8.65234 14.0032 8.74414 14.0652 8.8457 14.1074C8.94727 14.1499 9.05664 14.1716 9.16602 14.1716C9.27637 14.1716 9.38574 14.1499 9.4873 14.1074C9.58789 14.0652 9.68066 14.0032 9.75781 13.925L13.0918 10.5918C13.167 10.5125 13.2266 10.4189 13.2666 10.3167C13.3496 10.1138 13.3496 9.88623 13.2666 9.68335C13.2266 9.58105 13.167 9.48755 13.0918 9.40845L9.75781 6.0752C9.68066 5.99731 9.58789 5.93579 9.48633 5.8938C9.38477 5.85156 9.27637 5.83008 9.16602 5.83008C9.05664 5.83008 8.94727 5.85156 8.8457 5.8938C8.74414 5.93579 8.65234 5.99731 8.57422 6.0752C8.49707 6.15283 8.43555 6.24512 8.39355 6.34644C8.35156 6.448 8.33008 6.55688 8.33008 6.66675C8.33008 6.77661 8.35156 6.8855 8.39355 6.98706C8.43555 7.08838 8.49707 7.18066 8.57422 7.2583L10.4912 9.16675L4.16602 9.16675C3.94531 9.16675 3.7334 9.25464 3.57715 9.41089C3.4209 9.56714 3.33301 9.77905 3.33301 10ZM14.166 1.66675L5.83301 1.66675C5.16992 1.66675 4.53418 1.93018 4.06543 2.39893C3.59668 2.86792 3.33301 3.50366 3.33301 4.16675L3.33301 6.66675C3.33301 6.8877 3.4209 7.09961 3.57715 7.2561C3.7334 7.41235 3.94531 7.5 4.16602 7.5C4.3877 7.5 4.59961 7.41235 4.75586 7.2561C4.91211 7.09961 5 6.8877 5 6.66675L5 4.16675C5 3.9458 5.08789 3.73389 5.24414 3.57739C5.40039 3.42114 5.6123 3.3335 5.83301 3.3335L14.166 3.3335C14.3877 3.3335 14.5996 3.42114 14.7559 3.57739C14.9121 3.73389 15 3.9458 15 4.16675L15 15.8335C15 16.0544 14.9121 16.2664 14.7559 16.4226C14.5996 16.5789 14.3877 16.6667 14.166 16.6667L5.83301 16.6667C5.6123 16.6667 5.40039 16.5789 5.24414 16.4226C5.08789 16.2664 5 16.0544 5 15.8335L5 13.3335C5 13.1123 4.91211 12.9004 4.75586 12.7441C4.59961 12.5879 4.3877 12.5 4.16602 12.5C3.94531 12.5 3.7334 12.5879 3.57715 12.7441C3.4209 12.9004 3.33301 13.1123 3.33301 13.3335L3.33301 15.8335C3.33301 16.4963 3.59668 17.1323 4.06543 17.6011C4.53418 18.0701 5.16992 18.3335 5.83301 18.3335L14.166 18.3335C14.8291 18.3335 15.4648 18.0701 15.9346 17.6011C16.4033 17.1323 16.666 16.4963 16.666 15.8335L16.666 4.16675C16.666 3.50366 16.4033 2.86792 15.9346 2.39893C15.4648 1.93018 14.8291 1.66675 14.166 1.66675Z" fill="#819CFF" fill-opacity="1.000000" fill-rule="nonzero"/>
	</g>
</svg>
