<svg width="24.000000" height="24.000000" viewBox="0 0 24 24" fill="none" xmlns="http://www.w3.org/2000/svg" xmlns:xlink="http://www.w3.org/1999/xlink">
	<desc>
			Created with Pixso.
	</desc>
	<defs>
		<clipPath id="clip104_3709">
			<rect id="clarity:notification-line" width="24.000000" height="24.000000" fill="white" fill-opacity="0"/>
		</clipPath>
	</defs>
	<rect id="clarity:notification-line" width="24.000000" height="24.000000" fill="#FFFFFF" fill-opacity="0"/>
	<g clip-path="url(#clip104_3709)">
		<path id="Vector" d="M21.6758 18.5534C21.0332 17.9803 20.4688 17.3233 20.002 16.6C19.4922 15.6017 19.1855 14.5115 19.1016 13.3934L19.1016 10.1C19.1055 8.34378 18.4688 6.64636 17.3105 5.32669C16.1523 4.00702 14.5508 3.15594 12.8086 2.93338L12.8086 2.07339C12.8086 1.83734 12.7148 1.61096 12.5469 1.44406C12.3809 1.27716 12.1543 1.18338 11.918 1.18338C11.6816 1.18338 11.457 1.27716 11.2891 1.44406C11.123 1.61096 11.0293 1.83734 11.0293 2.07339L11.0293 2.94672C9.30273 3.18533 7.7207 4.04156 6.57617 5.35678C5.43359 6.67203 4.80469 8.35715 4.80859 10.1L4.80859 13.3934C4.72461 14.5115 4.41992 15.6017 3.9082 16.6C3.44922 17.3216 2.89453 17.9785 2.26172 18.5534C2.19141 18.6158 2.13281 18.6927 2.09375 18.779C2.05469 18.8652 2.03516 18.9587 2.03516 19.0534L2.03516 19.9601C2.03516 20.1369 2.10547 20.3064 2.23047 20.4315C2.35547 20.5565 2.52539 20.6267 2.70117 20.6267L21.2344 20.6267C21.4121 20.6267 21.582 20.5565 21.707 20.4315C21.832 20.3064 21.9023 20.1369 21.9023 19.9601L21.9023 19.0534C21.9023 18.9587 21.8809 18.8652 21.8418 18.779C21.8027 18.6927 21.7461 18.6158 21.6758 18.5534ZM3.42188 19.2934C4.04297 18.6942 4.58789 18.0227 5.04883 17.2934C5.69141 16.0877 6.06641 14.7574 6.14844 13.3934L6.14844 10.1C6.12109 9.31873 6.25391 8.5401 6.5332 7.81049C6.81445 7.08087 7.24023 6.41522 7.7832 5.85318C8.32617 5.29114 8.97656 4.84415 9.69727 4.53891C10.416 4.23364 11.1895 4.07632 11.9727 4.07632C12.7539 4.07632 13.5273 4.23364 14.2461 4.53891C14.9668 4.84415 15.6172 5.29114 16.1602 5.85318C16.7051 6.41522 17.1289 7.08087 17.4102 7.81049C17.6914 8.5401 17.8223 9.31873 17.7949 10.1L17.7949 13.3934C17.877 14.7574 18.252 16.0877 18.8945 17.2934C19.3555 18.0227 19.9023 18.6942 20.5215 19.2934L3.42188 19.2934Z" fill="#2F74FA" fill-opacity="1.000000" fill-rule="nonzero"/>
		<path id="Vector" d="M12 22.8533C12.4199 22.8437 12.8223 22.6858 13.1367 22.4076C13.4512 22.1295 13.6582 21.7489 13.7188 21.3333L10.2129 21.3333C10.2754 21.7602 10.4922 22.1497 10.8203 22.4293C11.1484 22.7089 11.5684 22.8596 12 22.8533Z" fill="#2F74FA" fill-opacity="1.000000" fill-rule="nonzero"/>
	</g>
</svg>
