<svg width="24.000000" height="24.000000" viewBox="0 0 24 24" fill="none" xmlns="http://www.w3.org/2000/svg" xmlns:xlink="http://www.w3.org/1999/xlink">
	<desc>
			Created with Pixso.
	</desc>
	<defs>
		<clipPath id="clip9_2154">
			<rect id="mingcute:notification-line" width="24.000000" height="24.000000" fill="white" fill-opacity="0"/>
		</clipPath>
	</defs>
	<rect id="mingcute:notification-line" width="24.000000" height="24.000000" fill="#FFFFFF" fill-opacity="0"/>
	<g clip-path="url(#clip9_2154)">
		<path id="Vector" d="M15 19C15.002 19.5045 14.8105 19.9906 14.4668 20.3606C14.125 20.7305 13.6543 20.9572 13.1504 20.995L13 21L11 21C10.4961 21.0001 10.0098 20.8096 9.64062 20.4666C9.26953 20.1234 9.04297 19.6532 9.00586 19.15L9 19L15 19ZM12 2C13.8164 2 15.5605 2.70483 16.8652 3.96606C18.1699 5.22729 18.9355 6.94604 18.9961 8.76001L19 9L19 12.764L20.8223 16.408C20.9023 16.567 20.9414 16.7429 20.9395 16.9207C20.9355 17.0984 20.8887 17.2727 20.8027 17.4286C20.7188 17.5845 20.5957 17.7174 20.4492 17.8158C20.3008 17.9143 20.1309 17.9755 19.9531 17.994L19.8379 18L4.16211 18C3.98438 18 3.81055 17.957 3.65234 17.8745C3.49414 17.792 3.35938 17.6725 3.25781 17.5264C3.15625 17.3801 3.0918 17.2115 3.07031 17.0352C3.04883 16.8586 3.07031 16.6794 3.13281 16.5129L3.17969 16.408L5 12.764L5 9C5 7.14343 5.73828 5.36304 7.05078 4.05029C8.36328 2.73755 10.1445 2 12 2ZM12 4C10.7129 4.00012 9.47461 4.49756 8.54297 5.38867C7.61328 6.27979 7.0625 7.49573 7.00586 8.78296L7 9L7 12.764C7 13.012 6.95508 13.2578 6.86523 13.489L6.78906 13.6591L5.61914 16L18.3828 16L17.2129 13.658C17.1016 13.4363 17.0332 13.1959 17.0098 12.949L17 12.764L17 9C17 7.67395 16.4746 6.4021 15.5371 5.46448C14.5996 4.52673 13.3262 4 12 4Z" fill="#2A68E1" fill-opacity="1.000000" fill-rule="evenodd"/>
	</g>
</svg>
