<svg width="24.000000" height="24.000000" viewBox="0 0 24 24" fill="none" xmlns="http://www.w3.org/2000/svg" xmlns:xlink="http://www.w3.org/1999/xlink">
	<desc>
			Created with Pixso.
	</desc>
	<defs>
		<clipPath id="clip104_6218">
			<rect id="clarity:notification-solid" width="24.000000" height="24.000000" fill="white" fill-opacity="0"/>
		</clipPath>
	</defs>
	<rect id="clarity:notification-solid" width="24.000000" height="24.000000" fill="#FFFFFF" fill-opacity="0"/>
	<g clip-path="url(#clip104_6218)">
		<path id="Vector" d="M21.9004 18.7533L21.6738 18.5533C21.0293 17.9805 20.4668 17.3234 20 16.6C19.4902 15.6017 19.1836 14.5115 19.0996 13.3933L19.0996 10.1C19.1035 8.34375 18.4668 6.64636 17.3086 5.32666C16.1504 4.00696 14.5488 3.15588 12.8066 2.93335L12.8066 2.07336C12.8066 1.83728 12.7129 1.61096 12.5449 1.44397C12.3789 1.2771 12.1523 1.18335 11.916 1.18335C11.6797 1.18335 11.4551 1.2771 11.2871 1.44397C11.1211 1.61096 11.0273 1.83728 11.0273 2.07336L11.0273 2.94666C9.30078 3.1853 7.71875 4.0415 6.57422 5.35681C5.43164 6.672 4.80273 8.35706 4.80664 10.1L4.80664 13.3933C4.72266 14.5115 4.41797 15.6017 3.90625 16.6C3.44727 17.3215 2.89258 17.9785 2.25977 18.5533L2.0332 18.7533L2.0332 20.6333L21.9004 20.6333L21.9004 18.7533Z" fill="#2863D4" fill-opacity="1.000000" fill-rule="nonzero"/>
		<path id="Vector" d="M10.2129 21.3334C10.2715 21.756 10.4805 22.1431 10.8027 22.4233C11.125 22.7036 11.5371 22.8579 11.9629 22.8579C12.3887 22.8579 12.8008 22.7036 13.123 22.4233C13.4453 22.1431 13.6543 21.756 13.7129 21.3334L10.2129 21.3334Z" fill="#2863D4" fill-opacity="1.000000" fill-rule="nonzero"/>
	</g>
</svg>
