<svg width="12.000000" height="12.000000" viewBox="0 0 12 12" fill="none" xmlns="http://www.w3.org/2000/svg" xmlns:xlink="http://www.w3.org/1999/xlink">
	<desc>
			Created with Pixso.
	</desc>
	<defs/>
	<path id="Vector" d="M4.6665 1.33337C2.82568 1.33337 1.3335 2.82568 1.3335 4.66663C1.3335 6.50757 2.82568 8 4.6665 8C5.5874 8 6.41992 7.62769 7.02344 7.02368C7.62744 6.4198 8 5.5874 8 4.66663C8 2.82568 6.50781 1.33337 4.6665 1.33337ZM0 4.66663C0 2.08936 2.08936 0 4.6665 0C7.24414 0 9.3335 2.08936 9.3335 4.66663C9.3335 5.7146 8.9873 6.68262 8.4043 7.46143L11.8047 10.8619C12.0649 11.1223 12.0649 11.5444 11.8047 11.8048C11.5444 12.0651 11.1221 12.0651 10.8618 11.8048L7.46143 8.40417C6.68262 8.9873 5.71484 9.33337 4.6665 9.33337C2.08936 9.33337 0 7.24402 0 4.66663Z" fill="#787878" fill-opacity="1.000000" fill-rule="evenodd"/>
</svg>
