<svg width="34.021484" height="34.022385" viewBox="0 0 34.0215 34.0224" fill="none" xmlns="http://www.w3.org/2000/svg" xmlns:xlink="http://www.w3.org/1999/xlink">
	<desc>
			Created with Pixso.
	</desc>
	<defs/>
	<path id="路径" d="M28.0371 6.27971C29.5801 5.63035 31.2324 6.93444 30.9609 8.5855L27.7441 28.087C27.4336 29.9673 25.3691 31.0462 23.6445 30.1092C22.2012 29.3251 20.0586 28.1183 18.1289 26.8571C17.1641 26.2273 14.2129 24.2077 14.5762 22.7702C14.8867 21.541 19.8477 16.9226 22.6836 14.176C23.7969 13.0971 23.2891 12.4738 21.9746 13.4672C18.7109 15.9314 13.4727 19.6779 11.7402 20.7324C10.2129 21.6626 9.41406 21.8214 8.46289 21.6626C6.72461 21.373 5.11328 20.9244 3.79688 20.3791C2.01953 19.6419 2.10547 17.1983 3.79688 16.4866L28.0371 6.27971Z" fill="#FFFFFF" fill-opacity="1.000000" fill-rule="evenodd"/>
</svg>
