<svg width="18.000000" height="18.000000" viewBox="0 0 18 18" fill="none" xmlns="http://www.w3.org/2000/svg" xmlns:xlink="http://www.w3.org/1999/xlink">
	<desc>
			Created with Pixso.
	</desc>
	<defs/>
	<path id="Vector" d="M0.53125 10.2734C0.363281 10.1074 0.228516 9.90967 0.138672 9.69189C0.046875 9.47412 0 9.24023 0 9.00391L0 4.50195C0 3.30811 0.474609 2.16309 1.31836 1.31836C2.16211 0.474121 3.30859 0 4.50195 0L8.99414 0C9.47266 0 9.93164 0.180176 10.2734 0.53125L17.4766 7.73438C17.8125 8.07178 18 8.52783 18 9.00391C18 9.47949 17.8125 9.93604 17.4766 10.2734L10.2734 17.4766C9.93555 17.8115 9.48047 18 9.00391 18C8.52734 18 8.07227 17.8115 7.73438 17.4766L0.53125 10.2734ZM16.207 9.00391L9.00391 1.80078L4.50195 1.80078C3.78516 1.80078 3.09766 2.08545 2.5918 2.5918C2.08594 3.09863 1.80078 3.78564 1.80078 4.50195L1.80078 9.00391L9.00391 16.207L16.207 9.00391ZM4.50195 5.40234C4.26367 5.40234 4.0332 5.30762 3.86523 5.13867C3.69727 4.96973 3.60156 4.74072 3.60156 4.50195C3.60156 4.26318 3.69727 4.03418 3.86523 3.86523C4.0332 3.69629 4.26367 3.60156 4.50195 3.60156C4.74023 3.60156 4.96875 3.69629 5.13867 3.86523C5.30664 4.03418 5.40234 4.26318 5.40234 4.50195C5.40234 4.74072 5.30664 4.96973 5.13867 5.13867C4.96875 5.30762 4.74023 5.40234 4.50195 5.40234Z" fill="#787878" fill-opacity="1.000000" fill-rule="nonzero"/>
</svg>
