<svg width="21.000000" height="21.000000" viewBox="0 0 21 21" fill="none" xmlns="http://www.w3.org/2000/svg" xmlns:xlink="http://www.w3.org/1999/xlink">
	<desc>
			Created with Pixso.
	</desc>
	<defs>
		<clipPath id="clip23_2980">
			<rect id="fluent:delete-32-filled" width="21.000000" height="21.000000" fill="white" fill-opacity="0"/>
		</clipPath>
	</defs>
	<rect id="fluent:delete-32-filled" width="21.000000" height="21.000000" fill="#FFFFFF" fill-opacity="0"/>
	<g clip-path="url(#clip23_2980)">
		<path id="Vector" d="M8.85938 4.26562L8.85938 4.59375L12.1406 4.59375L12.1406 4.26562C12.1406 3.83051 11.9678 3.41321 11.6602 3.10553C11.3525 2.79785 10.9351 2.625 10.5 2.625C10.0649 2.625 9.64746 2.79785 9.33984 3.10553C9.03223 3.41321 8.85938 3.83051 8.85938 4.26562ZM7.54688 4.59375L7.54688 4.26562C7.54688 3.48242 7.85791 2.73126 8.41162 2.17743C8.96582 1.62366 9.7168 1.3125 10.5 1.3125C11.2832 1.3125 12.0342 1.62366 12.5884 2.17743C13.1421 2.73126 13.4531 3.48242 13.4531 4.26562L13.4531 4.59375L18.375 4.59375C18.5488 4.59375 18.7158 4.6629 18.8389 4.78595C18.9619 4.90906 19.0312 5.07593 19.0312 5.25C19.0312 5.42407 18.9619 5.59094 18.8389 5.71405C18.7158 5.8371 18.5488 5.90625 18.375 5.90625L17.3853 5.90625L16.1436 16.779C16.0522 17.5798 15.6689 18.3188 15.0674 18.8552C14.4663 19.3916 13.688 19.6879 12.8823 19.6875L8.11768 19.6875C7.31201 19.6879 6.53369 19.3916 5.93262 18.8552C5.33105 18.3188 4.94775 17.5798 4.85645 16.779L3.61475 5.90625L2.625 5.90625C2.45117 5.90625 2.28418 5.8371 2.16113 5.71405C2.03809 5.59094 1.96875 5.42407 1.96875 5.25C1.96875 5.07593 2.03809 4.90906 2.16113 4.78595C2.28418 4.6629 2.45117 4.59375 2.625 4.59375L7.54688 4.59375ZM9.1875 8.85938C9.1875 8.6853 9.11816 8.51843 8.99512 8.39532C8.87207 8.27228 8.70508 8.20312 8.53125 8.20312C8.35742 8.20312 8.19043 8.27228 8.06738 8.39532C7.94434 8.51843 7.875 8.6853 7.875 8.85938L7.875 15.4219C7.875 15.5959 7.94434 15.7628 8.06738 15.8859C8.19043 16.009 8.35742 16.0781 8.53125 16.0781C8.70508 16.0781 8.87207 16.009 8.99512 15.8859C9.11816 15.7628 9.1875 15.5959 9.1875 15.4219L9.1875 8.85938ZM12.4688 8.20312C12.2949 8.20312 12.1279 8.27228 12.0049 8.39532C11.8818 8.51843 11.8125 8.6853 11.8125 8.85938L11.8125 15.4219C11.8125 15.5959 11.8818 15.7628 12.0049 15.8859C12.1279 16.009 12.2949 16.0781 12.4688 16.0781C12.6426 16.0781 12.8096 16.009 12.9326 15.8859C13.0557 15.7628 13.125 15.5959 13.125 15.4219L13.125 8.85938C13.125 8.6853 13.0557 8.51843 12.9326 8.39532C12.8096 8.27228 12.6426 8.20312 12.4688 8.20312Z" fill="#3A64FA" fill-opacity="1.000000" fill-rule="nonzero"/>
	</g>
</svg>
