<svg width="180.000000" height="47.000000" viewBox="0 0 180 47" fill="none" xmlns="http://www.w3.org/2000/svg" xmlns:xlink="http://www.w3.org/1999/xlink">
	<desc>
			Created with Pixso.
	</desc>
	<defs>
		<clipPath id="clip1_861">
			<rect id="Frame 111" rx="3.000000" width="180.000000" height="40.000000" transform="translate(0.000000 7.000000)" fill="white" fill-opacity="0"/>
		</clipPath>
	</defs>
	<rect id="Frame 111" rx="3.000000" width="180.000000" height="40.000000" transform="translate(0.000000 7.000000)" fill="#2F74FA" fill-opacity="1.000000"/>
	<g clip-path="url(#clip1_861)">
		<path id="Загрузить" d="M57.7124 24.8042Q57.7124 25.8955 57.0386 26.5291Q56.3647 27.1626 55.2368 27.353L55.2368 27.4043Q56.5552 27.5947 57.2437 28.2539Q57.9321 28.9131 57.9321 29.9824Q57.9321 30.9272 57.4597 31.6414Q56.9873 32.3555 56.0425 32.751Q55.0977 33.1465 53.6914 33.1465Q52.8198 33.1465 52.0288 33.011Q51.2378 32.8755 50.5786 32.5605L50.5786 31.4106Q51.0327 31.6304 51.5601 31.7915Q52.0874 31.9526 52.6331 32.0369Q53.1787 32.1211 53.6768 32.1211Q55.127 32.1211 55.8777 31.5608Q56.6284 31.0005 56.6284 29.9824Q56.6284 28.9351 55.7605 28.4553Q54.8926 27.9756 53.3252 27.9756L51.7871 27.9756L51.7871 26.9282L53.2739 26.9282Q54.3286 26.9282 55.0244 26.6829Q55.7202 26.4375 56.0681 25.9871Q56.416 25.5366 56.416 24.9214Q56.416 24.0791 55.8044 23.625Q55.1929 23.1709 54.2114 23.1709Q53.1934 23.1709 52.5269 23.4309Q51.8604 23.6909 51.2305 24.1011L50.6299 23.2515Q51.0547 22.9438 51.5967 22.6912Q52.1387 22.4385 52.7979 22.2883Q53.457 22.1382 54.2188 22.1382Q55.354 22.1382 56.1304 22.4788Q56.9067 22.8193 57.3096 23.4199Q57.7124 24.0205 57.7124 24.8042ZM63.0298 24.8408Q64.4653 24.8408 65.1611 25.4854Q65.8569 26.1299 65.8569 27.5435L65.8569 33L64.9707 33L64.7363 31.8135L64.6777 31.8135Q64.3408 32.2529 63.9746 32.5496Q63.6084 32.8462 63.1287 32.9963Q62.6489 33.1465 61.9531 33.1465Q61.2207 33.1465 60.6531 32.8901Q60.0854 32.6338 59.7595 32.1138Q59.4336 31.5938 59.4336 30.7954Q59.4336 29.5942 60.3857 28.9497Q61.3379 28.3052 63.2861 28.2466L64.6704 28.188L64.6704 27.6973Q64.6704 26.6572 64.2236 26.2397Q63.7769 25.8223 62.9639 25.8223Q62.334 25.8223 61.7627 26.0054Q61.1914 26.1885 60.6787 26.4375L60.3052 25.5146Q60.8472 25.2363 61.5503 25.0386Q62.2534 24.8408 63.0298 24.8408ZM64.6558 29.0449L63.4326 29.0962Q61.9312 29.1548 61.3159 29.5869Q60.7007 30.019 60.7007 30.8101Q60.7007 31.4985 61.1182 31.8281Q61.5356 32.1577 62.2241 32.1577Q63.2935 32.1577 63.9746 31.5645Q64.6558 30.9712 64.6558 29.7847L64.6558 29.0449ZM73.2324 24.9727L73.2324 26.0054L69.585 26.0054L69.585 33L68.3618 33L68.3618 24.9727L73.2324 24.9727ZM78.6011 24.8262Q80.1025 24.8262 80.9961 25.8589Q81.8896 26.8916 81.8896 28.9644Q81.8896 30.334 81.4795 31.2642Q81.0693 32.1943 80.3259 32.6704Q79.5825 33.1465 78.5718 33.1465Q77.9346 33.1465 77.4512 32.978Q76.9678 32.8096 76.6235 32.5239Q76.2793 32.2383 76.0522 31.9014L75.9644 31.9014Q75.9863 32.187 76.0193 32.5898Q76.0522 32.9927 76.0522 33.293L76.0522 36.5889L74.8291 36.5889L74.8291 24.9727L75.8325 24.9727L75.9937 26.1592L76.0522 26.1592Q76.2866 25.793 76.6235 25.489Q76.9604 25.1851 77.4475 25.0056Q77.9346 24.8262 78.6011 24.8262ZM78.3887 25.8516Q77.5537 25.8516 77.0447 26.1738Q76.5356 26.4961 76.3013 27.137Q76.0669 27.7778 76.0522 28.7446L76.0522 28.979Q76.0522 29.9971 76.2756 30.7002Q76.499 31.4033 77.0154 31.7695Q77.5317 32.1357 78.4033 32.1357Q79.1504 32.1357 79.6484 31.7329Q80.1465 31.3301 80.3918 30.6086Q80.6372 29.8872 80.6372 28.9497Q80.6372 27.5288 80.0842 26.6902Q79.5312 25.8516 78.3887 25.8516ZM82.7393 24.9727L84.043 24.9727L85.8154 29.6309Q85.9692 30.041 86.1011 30.4182Q86.2329 30.7954 86.3354 31.1396Q86.438 31.4839 86.4966 31.8062L86.5479 31.8062Q86.6504 31.4399 86.8408 30.843Q87.0312 30.2461 87.251 29.6235L88.9282 24.9727L90.2393 24.9727L86.7456 34.1792Q86.4673 34.9189 86.0974 35.4683Q85.7275 36.0176 85.2002 36.3142Q84.6729 36.6108 83.9258 36.6108Q83.5815 36.6108 83.3179 36.5706Q83.0542 36.5303 82.8638 36.479L82.8638 35.5049Q83.0249 35.5415 83.2556 35.5708Q83.4863 35.6001 83.7354 35.6001Q84.1895 35.6001 84.5227 35.428Q84.856 35.2559 85.0977 34.9263Q85.3394 34.5967 85.5151 34.1426L85.9546 33.0146L82.7393 24.9727ZM93.5864 24.8262Q94.4873 24.8262 95.1465 25.0715Q95.8057 25.3169 96.1646 25.7856Q96.5234 26.2544 96.5234 26.9282Q96.5234 27.6533 96.1279 28.0854Q95.7324 28.5176 95.0366 28.708L95.0366 28.7666Q95.5273 28.8984 95.9265 29.1438Q96.3257 29.3892 96.5637 29.7883Q96.8018 30.1875 96.8018 30.7808Q96.8018 31.4546 96.4355 31.9929Q96.0693 32.5312 95.3223 32.8389Q94.5752 33.1465 93.4326 33.1465Q92.8687 33.1465 92.3633 33.0842Q91.8579 33.022 91.4478 32.9048Q91.0376 32.7876 90.73 32.6265L90.73 31.5205Q91.2427 31.7695 91.9312 31.96Q92.6196 32.1504 93.418 32.1504Q94.0332 32.1504 94.5239 32.0076Q95.0146 31.8647 95.304 31.5461Q95.5933 31.2275 95.5933 30.7075Q95.5933 30.2314 95.3369 29.9202Q95.0806 29.6089 94.5715 29.4587Q94.0625 29.3086 93.2861 29.3086L92.2095 29.3086L92.2095 28.3125L93.0957 28.3125Q94.1284 28.3125 94.7437 28.0195Q95.3589 27.7266 95.3589 27.0308Q95.3589 26.4302 94.8828 26.1335Q94.4067 25.8369 93.5205 25.8369Q92.8613 25.8369 92.356 25.9724Q91.8506 26.1079 91.2646 26.3569L90.8325 25.3828Q91.4624 25.1045 92.1509 24.9653Q92.8394 24.8262 93.5864 24.8262ZM99.9292 24.9727L99.9292 30.019Q99.9292 30.1655 99.9219 30.3962Q99.9146 30.627 99.8999 30.887Q99.8853 31.147 99.8743 31.385Q99.8633 31.623 99.8486 31.7769L104.229 24.9727L105.723 24.9727L105.723 33L104.587 33L104.587 28.0781Q104.587 27.8438 104.595 27.4775Q104.602 27.1113 104.617 26.7561Q104.631 26.4009 104.639 26.2031L100.273 33L98.772 33L98.772 24.9727L99.9292 24.9727ZM113.779 26.0054L111.135 26.0054L111.135 33L109.934 33L109.934 26.0054L107.327 26.0054L107.327 24.9727L113.779 24.9727L113.779 26.0054ZM116.592 28.2832L119.053 28.2832Q120.078 28.2832 120.759 28.5396Q121.44 28.7959 121.781 29.3013Q122.122 29.8066 122.122 30.5537Q122.122 31.3008 121.788 31.8501Q121.455 32.3994 120.763 32.6997Q120.071 33 118.979 33L115.369 33L115.369 24.9727L116.592 24.9727L116.592 28.2832ZM120.898 30.6123Q120.898 29.8726 120.375 29.5833Q119.851 29.2939 118.914 29.2939L116.592 29.2939L116.592 32.0112L118.921 32.0112Q119.8 32.0112 120.349 31.6853Q120.898 31.3594 120.898 30.6123Z" fill="#FFFFFF" fill-opacity="1.000000" fill-rule="evenodd"/>
	</g>
	<circle id="Ellipse 50" cx="146.000000" cy="12.000000" r="12.000000" fill="#FFFFFF" fill-opacity="1.000000"/>
	<circle id="Ellipse 50" cx="146.000000" cy="12.000000" r="11.586206" stroke="#2F74FA" stroke-opacity="1.000000" stroke-width="0.827586"/>
	<path id="+" d="M147.13 11.522L149.627 11.522L149.627 12.3464L147.13 12.3464L147.13 14.9164L146.299 14.9164L146.299 12.3464L143.802 12.3464L143.802 11.522L146.299 11.522L146.299 8.93986L147.13 8.93986L147.13 11.522Z" fill="#2F74FA" fill-opacity="1.000000" fill-rule="evenodd"/>
</svg>
