<svg width="46" height="46" viewBox="0 0 46 46" fill="none" xmlns="http://www.w3.org/2000/svg">
<path d="M20.6535 17.022H28.1587C28.6562 17.022 29.1334 16.8242 29.4852 16.4724C29.837 16.1205 30.0347 15.6433 30.0347 15.1457C30.0347 14.6482 29.837 14.171 29.4852 13.8191C29.1334 13.4672 28.6562 13.2695 28.1587 13.2694H24.4061V11.3932C24.4061 10.8955 24.2084 10.4183 23.8565 10.0664C23.5047 9.71455 23.0274 9.51687 22.5298 9.51687C22.0322 9.51687 21.5549 9.71455 21.2031 10.0664C20.8512 10.4183 20.6535 10.8955 20.6535 11.3932V13.2694C19.1607 13.2694 17.7289 13.8625 16.6733 14.9181C15.6177 15.9737 15.0247 17.4054 15.0247 18.8983C15.0247 20.3912 15.6177 21.8229 16.6733 22.8785C17.7289 23.9341 19.1607 24.5272 20.6535 24.5272H24.4061C24.9037 24.5273 25.3808 24.725 25.7326 25.0768C26.0845 25.4287 26.2821 25.9059 26.2821 26.4035C26.2821 26.901 26.0845 27.3782 25.7326 27.7301C25.3808 28.082 24.9037 28.2797 24.4061 28.2798H16.9009C16.4034 28.2798 15.9262 28.4775 15.5744 28.8294C15.2226 29.1813 15.0249 29.6585 15.0249 30.156C15.0249 30.6536 15.2226 31.1308 15.5744 31.4827C15.9262 31.8345 16.4034 32.0323 16.9009 32.0323H20.6535V33.9086C20.6535 34.4062 20.8512 34.8835 21.2031 35.2354C21.5549 35.5872 22.0322 35.7849 22.5298 35.7849C23.0274 35.7849 23.5047 35.5872 23.8565 35.2354C24.2084 34.8835 24.4061 34.4062 24.4061 33.9086V32.0323C25.899 32.0323 27.3307 31.4393 28.3863 30.3837C29.4419 29.3281 30.035 27.8963 30.035 26.4035C30.035 24.9106 29.4419 23.4789 28.3863 22.4233C27.3307 21.3676 25.899 20.7746 24.4061 20.7746H20.6535C20.1559 20.7745 19.6788 20.5768 19.327 20.225C18.9752 19.8731 18.7775 19.3959 18.7775 18.8983C18.7775 18.4007 18.9752 17.9235 19.327 17.5717C19.6788 17.2198 20.1559 17.0221 20.6535 17.022ZM22.5298 2.01172C18.4478 2.01172 14.4574 3.22218 11.0633 5.49005C7.6692 7.75791 5.02383 10.9813 3.4617 14.7526C1.89957 18.5239 1.49084 22.6738 2.28721 26.6774C3.08358 30.681 5.04927 34.3585 7.93571 37.245C10.8221 40.1314 14.4997 42.0971 18.5033 42.8935C22.5069 43.6899 26.6568 43.2811 30.4281 41.719C34.1994 40.1569 37.4228 37.5115 39.6907 34.1174C41.9585 30.7233 43.169 26.7329 43.169 22.6509C43.169 17.177 40.9945 11.9274 37.1239 8.05679C33.2533 4.1862 28.0037 2.01172 22.5298 2.01172ZM22.5298 39.5375C19.19 39.5375 15.9251 38.5471 13.1481 36.6916C10.3711 34.8361 8.20673 32.1987 6.92863 29.1131C5.65052 26.0275 5.31611 22.6322 5.96768 19.3565C6.61926 16.0808 8.22755 13.0719 10.5892 10.7103C12.9508 8.34863 15.9597 6.74034 19.2354 6.08877C22.5111 5.43719 25.9064 5.7716 28.992 7.04971C32.0777 8.32782 34.715 10.4922 36.5705 13.2692C38.426 16.0462 39.4164 19.311 39.4164 22.6509C39.4164 27.1295 37.6373 31.4247 34.4704 34.5915C31.3036 37.7584 27.0084 39.5375 22.5298 39.5375Z" fill="#359B5E"/>
</svg>
