<svg width="45.031250" height="45.030945" viewBox="0 0 45.0312 45.0309" fill="none" xmlns="http://www.w3.org/2000/svg" xmlns:xlink="http://www.w3.org/1999/xlink">
	<desc>
			Created with Pixso.
	</desc>
	<defs>
		<clipPath id="clip1_4167">
			<rect id="usd-circle 1" width="45.030930" height="45.030930" fill="white" fill-opacity="0"/>
		</clipPath>
	</defs>
	<rect id="usd-circle 1" width="45.030930" height="45.030930" fill="#FFFFFF" fill-opacity="0"/>
	<g clip-path="url(#clip1_4167)">
		<path id="Vector" d="M20.6387 16.8865L28.1426 16.8865C28.6406 16.8865 29.1172 16.6887 29.4688 16.3369C29.8223 15.985 30.0195 15.5078 30.0195 15.0103C30.0195 14.5127 29.8223 14.0355 29.4688 13.6836C29.1172 13.3317 28.6406 13.134 28.1426 13.134L24.3906 13.134L24.3906 11.2577C24.3906 10.76 24.1934 10.2828 23.8418 9.93091C23.4883 9.57904 23.0117 9.38135 22.5137 9.38135C22.0156 9.38135 21.5391 9.57904 21.1875 9.93091C20.8359 10.2828 20.6387 10.76 20.6387 11.2577L20.6387 13.134C19.1445 13.134 17.7129 13.727 16.6582 14.7826C15.6016 15.8383 15.0098 17.27 15.0098 18.7628C15.0098 20.2557 15.6016 21.6874 16.6582 22.743C17.7129 23.7986 19.1445 24.3917 20.6387 24.3917L24.3906 24.3917C24.8887 24.3918 25.3652 24.5895 25.7168 24.9413C26.0684 25.2932 26.2656 25.7704 26.2656 26.2679C26.2656 26.7656 26.0684 27.2427 25.7168 27.5946C25.3652 27.9465 24.8887 28.1442 24.3906 28.1443L16.8848 28.1443C16.3887 28.1443 15.9102 28.342 15.5586 28.6939C15.207 29.0458 15.0098 29.5229 15.0098 30.0206C15.0098 30.5181 15.207 30.9953 15.5586 31.3472C15.9102 31.699 16.3887 31.8967 16.8848 31.8969L20.6387 31.8969L20.6387 33.7731C20.6387 34.2708 20.8359 34.748 21.1875 35.0999C21.5391 35.4517 22.0156 35.6494 22.5137 35.6494C23.0117 35.6494 23.4883 35.4517 23.8418 35.0999C24.1934 34.748 24.3906 34.2708 24.3906 33.7731L24.3906 31.8969C25.8828 31.8969 27.3145 31.3038 28.3711 30.2482C29.4258 29.1926 30.0195 27.7609 30.0195 26.2679C30.0195 24.7751 29.4258 23.3434 28.3711 22.2878C27.3145 21.2321 25.8828 20.6391 24.3906 20.6391L20.6387 20.6391C20.1406 20.639 19.6641 20.4413 19.3105 20.0895C18.959 19.7376 18.7617 19.2604 18.7617 18.7628C18.7617 18.2653 18.959 17.788 19.3105 17.4362C19.6641 17.0843 20.1406 16.8866 20.6387 16.8865ZM22.5137 1.87622C18.4316 1.87622 14.4414 3.08667 11.0469 5.35455C7.6543 7.62244 5.00781 10.8458 3.44531 14.6171C1.88477 18.3884 1.47461 22.5383 2.27148 26.5419C3.06836 30.5455 5.0332 34.223 7.91992 37.1095C10.8066 39.9959 14.4844 41.9616 18.4883 42.758C22.4922 43.5544 26.6406 43.1456 30.4121 41.5835C34.1836 40.0214 37.4062 37.376 39.6758 33.9819C41.9434 30.5878 43.1543 26.5974 43.1543 22.5154C43.1543 17.0416 40.9785 11.7919 37.1074 7.92126C33.2383 4.05072 27.9883 1.87622 22.5137 1.87622ZM22.5137 39.402C19.1738 39.402 15.9102 38.4116 13.1328 36.5561C10.3555 34.7006 8.19141 32.0632 6.91211 28.9776C5.63477 25.892 5.30078 22.4966 5.95117 19.221C6.60352 15.9453 8.21289 12.9364 10.5742 10.5748C12.9355 8.21313 15.9434 6.60486 19.2207 5.95325C22.4961 5.3017 25.8906 5.63611 28.9766 6.91418C32.0625 8.19232 34.6992 10.3567 36.5547 13.1337C38.4102 15.9107 39.4004 19.1755 39.4004 22.5154C39.4004 26.994 37.6211 31.2892 34.4551 34.456C31.2871 37.6229 26.9922 39.402 22.5137 39.402Z" fill="#000000" fill-opacity="1.000000" fill-rule="nonzero"/>
	</g>
</svg>
