<svg width="24.000000" height="24.000000" viewBox="0 0 24 24" fill="none" xmlns="http://www.w3.org/2000/svg" xmlns:xlink="http://www.w3.org/1999/xlink">
	<desc>
			Created with Pixso.
	</desc>
	<defs>
		<clipPath id="clip1_6255">
			<rect id="mdi:hide" width="24.000000" height="24.000000" fill="white" fill-opacity="0"/>
		</clipPath>
	</defs>
	<rect id="mdi:hide" width="24.000000" height="24.000000" fill="#FFFFFF" fill-opacity="0"/>
	<g clip-path="url(#clip1_6255)">
		<path id="Vector" d="M11.8301 9L15 12.16L15 12C15 11.2043 14.6841 10.4413 14.1211 9.87869C13.5586 9.31607 12.7954 9 12 9L11.8301 9ZM7.52979 9.79999L9.08008 11.35C9.02979 11.56 9 11.77 9 12C9 12.7957 9.31592 13.5587 9.87891 14.1213C10.4414 14.6839 11.2046 15 12 15C12.2202 15 12.4399 14.97 12.6499 14.92L14.2002 16.47C13.5298 16.8 12.79 17 12 17C10.6738 17 9.40234 16.4732 8.46436 15.5355C7.52686 14.5978 7 13.3261 7 12C7 11.21 7.2002 10.47 7.52979 9.79999ZM2 4.26999L4.27979 6.54999L4.72998 7C3.08008 8.29999 1.77979 10 1 12C2.72998 16.39 7 19.5 12 19.5C13.5498 19.5 15.0298 19.2 16.3799 18.66L16.8101 19.08L19.73 22L21 20.73L3.27002 3L2 4.26999ZM12 7C13.3262 7 14.5977 7.52679 15.5356 8.46448C16.4731 9.40216 17 10.6739 17 12C17 12.64 16.8701 13.26 16.6401 13.82L19.5698 16.75C21.0698 15.5 22.27 13.86 23 12C21.27 7.60999 17 4.5 12 4.5C10.6001 4.5 9.25977 4.75 8 5.20001L10.1699 7.35001C10.7402 7.13 11.3501 7 12 7Z" fill="#2F74FA" fill-opacity="1.000000" fill-rule="nonzero"/>
	</g>
</svg>
