<svg width="19.000000" height="19.000000" viewBox="0 0 19 19" fill="none" xmlns="http://www.w3.org/2000/svg" xmlns:xlink="http://www.w3.org/1999/xlink">
	<desc>
			Created with Pixso.
	</desc>
	<defs>
		<clipPath id="clip23_2974">
			<rect id="bi:pin-fill" width="19.000000" height="19.000000" fill="white" fill-opacity="0"/>
		</clipPath>
	</defs>
	<rect id="bi:pin-fill" width="19.000000" height="19.000000" fill="#FFFFFF" fill-opacity="0"/>
	<g clip-path="url(#clip23_2974)">
		<path id="Vector" d="M4.92334 0.17337C4.97852 0.118286 5.04395 0.074585 5.11621 0.0448608C5.18848 0.0151062 5.26562 -0.000152588 5.34375 0L13.6562 0C13.814 0 13.9648 0.062561 14.0762 0.17392C14.1875 0.285248 14.25 0.436279 14.25 0.59375C14.25 1.40125 13.8438 1.98788 13.4829 2.35007C13.333 2.4985 13.186 2.61606 13.0625 2.70395L13.0625 7.96576L13.1553 8.02277C13.396 8.17355 13.7202 8.39563 14.0469 8.68182C14.6777 9.23282 15.4375 10.1258 15.4375 11.2812C15.4375 11.4387 15.375 11.5898 15.2637 11.7011C15.1523 11.8124 15.0015 11.875 14.8438 11.875L10.0938 11.875L10.0938 17.2188C10.0938 17.5465 9.82764 19 9.5 19C9.17236 19 8.90625 17.5465 8.90625 17.2188L8.90625 11.875L4.15625 11.875C3.99854 11.875 3.84766 11.8124 3.73633 11.7011C3.625 11.5898 3.5625 11.4387 3.5625 11.2812C3.5625 10.1258 4.32227 9.23282 4.95166 8.68182C5.25928 8.41544 5.58936 8.17587 5.9375 7.96576L5.9375 2.70395C5.78857 2.59698 5.64795 2.47867 5.51709 2.35007C5.15625 1.98788 4.75 1.40005 4.75 0.59375C4.75 0.515717 4.76514 0.438446 4.79492 0.366302C4.82471 0.294189 4.86816 0.228607 4.92334 0.17337Z" fill="#2F74FA" fill-opacity="1.000000" fill-rule="nonzero"/>
	</g>
</svg>
