<svg width="121.000000" height="25.656982" viewBox="0 0 121 25.657" fill="none" xmlns="http://www.w3.org/2000/svg" xmlns:xlink="http://www.w3.org/1999/xlink">
	<desc>
			Created with Pixso.
	</desc>
	<defs/>
	<path id="Vector" d="M0 0L45.6641 0L45.6641 25.657L0 25.657L0 0Z" fill="#2F74FA" fill-opacity="1.000000" fill-rule="evenodd"/>
	<path id="Vector" d="M21.2695 24.9285L17.0234 24.9285L8.38672 12.793L4.60352 16.4887L4.60352 24.9285L1.38672 24.9285L1.38672 0.586365L4.60352 0.586365L4.60352 12.6508L16.4727 0.586365L20.8242 0.586365L10.627 10.5898L21.2695 24.9285Z" fill="#FFFFFF" fill-opacity="1.000000" fill-rule="nonzero"/>
	<path id="Vector" d="M44.3496 24.9285L40.8672 24.9285L38.5742 18.4432C38.166 17.2883 37.4902 16.3466 36.5312 15.6181C35.5723 14.8896 34.4883 14.5165 33.2441 14.5165L27.2754 14.5165L27.2754 24.9285L24.0586 24.9285L24.0586 0.586365L34.8438 0.586365C36.7266 0.586365 38.2734 0.764038 39.4629 1.13715C40.6543 1.51031 41.6309 2.27432 42.377 3.44702C43.123 4.61969 43.5137 5.9523 43.5137 7.40927C43.5137 9.09723 43.0352 10.5009 42.0566 11.6203C41.0801 12.7574 39.748 13.4859 38.0605 13.8235L38.0605 13.8946C39.748 14.4454 41.0449 15.9024 41.9336 18.3011L44.3496 24.9285ZM27.293 11.6381L34.4883 11.6381C36.4961 11.6381 37.9531 11.3182 38.8418 10.6964C39.748 10.0567 40.1914 8.97287 40.1914 7.42703C40.1914 4.65524 38.4512 3.26932 34.9863 3.26932L27.293 3.26932L27.293 11.6381Z" fill="#FFFFFF" fill-opacity="1.000000" fill-rule="nonzero"/>
	<path id="Vector" d="M97.4043 24.9285L94.0996 24.9285L81.3418 5.72131L81.3418 24.9285L78.2852 24.9285L78.2852 0.586365L81.5723 0.586365L94.3301 19.7935L94.3301 0.586365L97.4043 0.586365L97.4043 24.9285Z" fill="#000000" fill-opacity="1.000000" fill-rule="nonzero"/>
	<path id="Vector" d="M121 24.9285L102.842 24.9285L102.842 0.586365L120.432 0.586365L120.432 3.48254L106.076 3.48254L106.076 10.9273L119.508 10.9273L119.508 13.8058L106.076 13.8058L106.076 22.0501L121 22.0501L121 24.9285Z" fill="#000000" fill-opacity="1.000000" fill-rule="nonzero"/>
	<path id="Vector" d="M61.334 24.2178C55.0449 24.2178 49.9453 19.1186 49.9453 12.8285C49.9453 6.53836 55.0449 1.43921 61.334 1.43921C67.625 1.43921 72.7246 6.53836 72.7246 12.8285C72.7246 19.1186 67.625 24.2178 61.334 24.2178Z" stroke="#2F74FA" stroke-opacity="1.000000" stroke-width="1.776799"/>
	<path id="Vector" d="M61.3359 20.8063C56.8906 20.8063 53.2871 17.2027 53.2871 12.7574C53.2871 8.31213 56.8906 4.70853 61.3359 4.70853C65.7812 4.70853 69.3848 8.31213 69.3848 12.7574C69.3848 17.2027 65.7812 20.8063 61.3359 20.8063Z" stroke="#2F74FA" stroke-opacity="1.000000" stroke-width="1.776799"/>
	<path id="Vector" d="M61.3711 16.542C59.2988 16.542 57.6211 14.8635 57.6211 12.793C57.6211 10.7224 59.2988 9.04391 61.3711 9.04391C63.4414 9.04391 65.1191 10.7224 65.1191 12.793C65.1191 14.8635 63.4414 16.542 61.3711 16.542Z" stroke="#2F74FA" stroke-opacity="1.000000" stroke-width="1.776799"/>
	<path id="Vector" d="M62.1172 0.586365C55.3652 0.586365 49.8926 6.0589 49.8926 12.8107C49.8926 19.5626 55.3652 25.0351 62.1172 25.0351L62.1172 0.586365Z" fill="#2F74FA" fill-opacity="1.000000" fill-rule="nonzero"/>
</svg>
