<svg width="146.000000" height="30.204559" viewBox="0 0 146 30.2046" fill="none" xmlns="http://www.w3.org/2000/svg" xmlns:xlink="http://www.w3.org/1999/xlink">
	<desc>
			Created with Pixso.
	</desc>
	<defs>
		<clipPath id="clip220_2422">
			<rect id="BLACK def 1" width="146.000000" height="30.204557" fill="white" fill-opacity="0"/>
		</clipPath>
		<linearGradient id="paint_linear_220_2423_0" x1="31.686493" y1="30.203260" x2="1.517868" y2="-1.446817" gradientUnits="userSpaceOnUse">
			<stop stop-color="#364CFC"/>
			<stop offset="1.000000" stop-color="#03D0FF"/>
		</linearGradient>
	</defs>
	<rect id="BLACK def 1" width="146.000000" height="30.204557" fill="#FFFFFF" fill-opacity="0"/>
	<g clip-path="url(#clip220_2422)">
		<path id="Vector" d="M3.77539 28.5403L0 7.95532L12.0605 4.92755C11.7949 5.20624 11.541 5.5033 11.3027 5.81866C10.498 6.90442 9.90039 8.17477 9.50977 9.6297L15.832 10.0205C16.6348 7.76218 18.5352 6.633 21.5332 6.633C23.9434 6.633 25.1504 7.26273 25.1504 8.52222C25.1504 9.17365 24.8027 9.79251 24.1074 10.3788C23.4336 10.9651 22.293 11.6709 20.6855 12.4961L7.16406 19.5318L6.38281 24.4503L27.8301 24.4503L26.9219 30.2033L3.77539 28.5403ZM29.7773 12.1069L28.6777 19.0758L18.1113 19.0758L23.9434 16.0791C26.6797 14.6712 28.625 13.3472 29.7773 12.1069ZM31.6855 0L30.9531 4.65387C30.5098 3.94379 29.8789 3.34399 29.0605 2.85455C28.041 2.24561 26.8574 1.81091 25.5117 1.55048L31.6855 0Z" fill="url(#paint_linear_220_2423_0)" fill-opacity="1.000000" fill-rule="evenodd"/>
		<path id="Vector" d="M47.2031 15.9825C49.5762 16.1982 50.7617 17.0791 50.7617 18.6252C50.7617 19.7639 50.2285 20.6808 49.1621 21.3759C48.1074 22.0591 46.5605 22.4007 44.5234 22.4007L35.7324 22.4007L37.7285 9.81598L46.5195 9.81598C48.0293 9.81598 49.1738 10.0916 49.9531 10.6429C50.7324 11.1943 51.1211 11.9314 51.1211 12.8543C51.1211 13.7772 50.7676 14.4962 50.0605 15.0116C49.3535 15.515 48.4004 15.8386 47.2031 15.9825ZM47.3457 13.5914C47.3457 12.9921 46.8848 12.6924 45.9629 12.6924L41.0176 12.6924L40.6953 14.688L45.6387 14.688C46.1777 14.688 46.5977 14.5922 46.8965 14.4004C47.1973 14.1967 47.3457 13.927 47.3457 13.5914ZM44.5605 19.5242C46.2012 19.5242 47.0234 19.1526 47.0234 18.4095C47.0234 17.7503 46.375 17.4207 45.0801 17.4207L40.2637 17.4207L39.9219 19.5242L44.5605 19.5242ZM63.9219 22.4007L63.2734 19.9736L56.082 19.9736L54.6797 22.4007L50.9238 22.4007L58.4375 9.81598L64.1914 9.81598L67.7324 22.4007L63.9219 22.4007ZM57.7012 17.169L62.5371 17.169L61.0078 11.434L57.7012 17.169ZM79.8574 9.81598L84.1367 9.81598L76.4609 17.6904L75.7051 22.4007L71.9648 22.4007L72.7207 17.6904L67.5254 9.81598L71.9473 9.81598L75.0762 15.0296L79.8574 9.81598ZM92.252 17.7803L89.0332 19.4343L96.0449 19.4343L95.5781 22.4007L82.5605 22.4007L82.9922 19.6859L90.4531 15.8027C91.3398 15.3472 91.9707 14.9577 92.3418 14.6341C92.7246 14.3105 92.916 13.9689 92.916 13.6093C92.916 12.9142 92.252 12.5666 90.9219 12.5666C89.2676 12.5666 88.2188 13.1898 87.7754 14.4363L84.2871 14.2206C84.5039 13.4176 84.832 12.7164 85.2754 12.1172C85.7324 11.5179 86.2695 11.0385 86.8945 10.6789C87.5293 10.3074 88.2129 10.0377 88.9434 9.86984C89.6738 9.69012 90.459 9.60019 91.2988 9.60019C92.832 9.60019 94.0918 9.89389 95.0742 10.4811C96.0566 11.0684 96.5488 11.9434 96.5488 13.106C96.5488 13.909 96.2363 14.682 95.6133 15.4251C95.002 16.1563 93.8809 16.9413 92.252 17.7803ZM109.02 15.9825C111.393 16.1982 112.58 17.0791 112.58 18.6252C112.58 19.7639 112.047 20.6808 110.98 21.3759C109.926 22.0591 108.379 22.4007 106.342 22.4007L97.5508 22.4007L99.5449 9.81598L108.336 9.81598C109.848 9.81598 110.992 10.0916 111.771 10.6429C112.551 11.1943 112.939 11.9314 112.939 12.8543C112.939 13.7772 112.586 14.4962 111.879 15.0116C111.172 15.515 110.219 15.8386 109.02 15.9825ZM109.164 13.5914C109.164 12.9921 108.703 12.6924 107.779 12.6924L102.836 12.6924L102.512 14.688L107.455 14.688C107.996 14.688 108.414 14.5922 108.715 14.4004C109.014 14.1967 109.164 13.927 109.164 13.5914ZM106.377 19.5242C108.02 19.5242 108.84 19.1526 108.84 18.4095C108.84 17.7503 108.193 17.4207 106.898 17.4207L102.08 17.4207L101.738 19.5242L106.377 19.5242ZM125.738 22.4007L125.092 19.9736L117.9 19.9736L116.498 22.4007L112.74 22.4007L120.256 9.81598L126.008 9.81598L129.551 22.4007L125.738 22.4007ZM119.518 17.169L124.354 17.169L122.826 11.434L119.518 17.169ZM141.676 9.81598L145.955 9.81598L138.277 17.6904L137.523 22.4007L133.783 22.4007L134.539 17.6904L129.344 9.81598L133.766 9.81598L136.895 15.0296L141.676 9.81598Z" fill="#000517" fill-opacity="1.000000" fill-rule="nonzero"/>
	</g>
</svg>
